<svg xmlns="http://www.w3.org/2000/svg" width="19" height="11" viewBox="0 0 19 11"><g><g transform="rotate(-90 9.5 5.5)"><path fill="#fff" d="M15.052 7.722a8.454 8.454 0 0 0-.14-1.03C14.173 2.967 11.066.303 7.468-.05L9.58-2.164a.903.903 0 1 0-1.277-1.277L4.544.319 4.542.32a.907.907 0 0 0-.061.068c-.009.01-.016.021-.024.032L4.43.458C4.42.475 4.41.492 4.4.51l-.015.023c-.009.017-.017.034-.024.052-.005.009-.01.018-.013.027-.007.016-.012.031-.017.047-.005.012-.01.024-.013.037l-.01.038-.012.048-.004.03c-.004.02-.007.038-.009.058l-.001.025c-.002.02-.003.041-.003.062l.002.04a.898.898 0 0 0 .015.136v.001c0 .004.002.007.003.01a.895.895 0 0 0 .019.077l.01.026c.006.02.012.038.02.057l.016.036.021.044.025.042.02.033.036.049.017.022.054.06.006.007h.001l.003.003 3.757 3.758a.9.9 0 0 0 1.277 0 .903.903 0 0 0 0-1.277L7.244 1.743c2.847.259 5.312 2.36 5.898 5.302a6.62 6.62 0 0 1-1.78 5.941.903.903 0 1 0 1.287 1.267 8.425 8.425 0 0 0 2.403-6.53z"/></g></g></svg>