<svg xmlns="http://www.w3.org/2000/svg" width="19" height="11" viewBox="0 0 19 11"><g><g transform="rotate(90 9.5 5.5)"><path fill="#a51515" d="M15.053 7.72a8.454 8.454 0 0 0-.14-1.03C14.172 2.965 11.066.3 7.467-.052l2.115-2.115a.903.903 0 0 0-1.277-1.277L4.544.317a.907.907 0 0 0-.062.068l-.024.033C4.45.43 4.44.442 4.431.455c-.012.017-.022.035-.032.052L4.386.53c-.01.017-.017.035-.025.052-.004.01-.01.019-.013.028l-.017.046c-.004.013-.01.025-.013.038l-.01.038-.012.048-.004.03c-.003.019-.007.038-.008.057l-.002.026c-.001.02-.003.04-.003.062l.002.04a.898.898 0 0 0 .015.136v.001l.003.01a.895.895 0 0 0 .02.077c.002.009.006.017.009.026.006.02.012.038.02.057l.017.035.02.044c.008.015.017.028.026.042l.02.034c.011.017.024.033.036.048.006.008.01.016.017.023a.9.9 0 0 0 .053.059l.007.007v.001l.003.003 3.758 3.758a.9.9 0 0 0 1.277 0 .903.903 0 0 0 0-1.277L7.244 1.74C10.09 2 12.557 4.1 13.142 7.042a6.62 6.62 0 0 1-1.78 5.941.903.903 0 0 0 1.287 1.267 8.425 8.425 0 0 0 2.404-6.53z"/></g></g></svg>