<svg xmlns="http://www.w3.org/2000/svg" width="37" height="37" viewBox="0 0 37 37"><g><g><g><g><g><path fill="#fff" d="M5.594 34.737a6.447 6.447 0 0 1 3.303-3.274.706.706 0 1 0-.568-1.293 7.852 7.852 0 0 0-4.255 4.567H1.682c1.535-4.022 5.444-6.758 9.814-6.758.517 0 1.04.039 1.551.115.3.044.594-.108.732-.377a4.809 4.809 0 0 1 4.296-2.63 4.809 4.809 0 0 1 4.296 2.63c.138.27.433.42.732.377a10.634 10.634 0 0 1 1.552-.115c4.37 0 8.278 2.736 9.814 6.758zm11.775-18.051a8.64 8.64 0 0 1-.031.365l-4.121-4.12a.706.706 0 0 0-.999.998l4.121 4.121c-1.595.17-4.506.014-7.122-2.602-3.164-3.164-2.745-6.715-2.46-7.983a8.434 8.434 0 0 1 2.393-.167c2.112.151 3.991 1.036 5.586 2.63 1.594 1.595 2.48 3.474 2.63 5.586l.003.057v1.115zm2.953-13.752c1.373-1.346 3.622-1.52 4.692-1.521.03 1.098-.088 3.43-1.464 4.78-1.033 1.015-2.588 1.337-3.757 1.423L21.92 5.49a.706.706 0 0 0-.999-.998l-2.09 2.09c.114-1.147.47-2.645 1.491-3.647zm15.803 32.319a11.995 11.995 0 0 0-4.215-6.222 11.82 11.82 0 0 0-4.085-2.04 1.425 1.425 0 0 1 1.418-1.303.706.706 0 0 0 0-1.412 2.83 2.83 0 0 0-2.13.966 2.83 2.83 0 0 0-2.13-.966.706.706 0 0 0 0 1.412c.636 0 1.176.42 1.358.997a12.117 12.117 0 0 0-2.96-.05 6.206 6.206 0 0 0-4.464-2.903l.014-.013 2.58-2.579c.462.109 1.263.253 2.272.253.218 0 .445-.007.68-.022 1.796-.116 4.446-.764 6.878-3.196 2.432-2.432 3.08-5.082 3.196-6.877.126-1.952-.33-3.332-.35-3.39a.706.706 0 0 0-.495-.459l-.007-.002a9.769 9.769 0 0 0-2.546-.355h-.008a.706.706 0 0 0-.008 1.412c.775.009 1.4.113 1.819.209.108.479.263 1.405.182 2.553-.159 2.235-1.095 4.223-2.782 5.91-1.687 1.687-3.675 2.623-5.91 2.781a9.148 9.148 0 0 1-1.7-.038l5.177-5.177a.706.706 0 0 0-.999-.999l-5.177 5.177c-.192-1.67-.066-4.801 2.743-7.61.55-.551 1.142-1.028 1.76-1.419a.706.706 0 0 0-.756-1.193c-.705.446-1.379.989-2.003 1.613-2.432 2.432-3.08 5.082-3.196 6.877a10.238 10.238 0 0 0 .231 2.953l-1.73 1.73V9.057c.08.002.167.003.259.003 1.384 0 3.86-.25 5.498-1.857 2.2-2.16 1.906-5.932 1.846-6.512a.704.704 0 0 0-.658-.664c-.336-.03-4.145-.306-6.394 1.9-2.025 1.988-2.003 5.266-1.947 6.229-.01.05-.017.1-.017.153v2.698a10.893 10.893 0 0 0-1.635-2.076c-2.316-2.317-4.841-2.935-6.552-3.045-1.86-.12-3.176.315-3.231.334a.706.706 0 0 0-.459.494l-.002.007c-.264.904-1.373 5.625 2.728 9.726 2.317 2.317 4.842 2.935 6.552 3.045.225.014.441.02.649.02.82 0 1.495-.099 1.95-.193v4.398a6.206 6.206 0 0 0-4.6 2.919 12.029 12.029 0 0 0-2.96.05 1.426 1.426 0 0 1 1.358-.997.706.706 0 0 0 0-1.412 2.83 2.83 0 0 0-2.13.966 2.83 2.83 0 0 0-2.13-.966.706.706 0 0 0 0 1.412c.745 0 1.357.574 1.418 1.303a11.82 11.82 0 0 0-4.085 2.04 11.995 11.995 0 0 0-4.214 6.222.706.706 0 0 0 .68.897h34.739a.706.706 0 0 0 .68-.897z"/></g></g></g><g><g><g><path fill="#fff" d="M29.099 7.962a.706.706 0 0 0-.87-.491l-.056.016a.706.706 0 1 0 .39 1.357l.045-.013a.706.706 0 0 0 .49-.87z"/></g></g></g><g><g><g><path fill="#fff" d="M11.496 29.508h-.044a.706.706 0 0 0 .004 1.412h.04a.706.706 0 1 0 0-1.412z"/></g></g></g></g></g></svg>