<svg xmlns="http://www.w3.org/2000/svg" width="18" height="18" viewBox="0 0 18 18"><g><g><g><path fill="#a51515" d="M9.273 16.588a7.91 7.91 0 1 1 7.91-7.91 7.919 7.919 0 0 1-7.91 7.91zm0-16.385a8.475 8.475 0 1 0 8.475 8.475A8.484 8.484 0 0 0 9.273.203z"/></g><g><path fill="#a51515" d="M9.273 1.333a7.334 7.334 0 0 0-4.739 1.742l-.008.01-.01.007a.29.29 0 0 0-.023.036.332.332 0 0 0-.057.152.612.612 0 0 0 .017.106.292.292 0 0 0 .026.047.273.273 0 0 0 .022.04l.01.009c.003.003.004.006.006.01L6.814 5.77a.282.282 0 1 0 .397-.4L5.143 3.315a6.767 6.767 0 0 1 9.491 9.495l-1.773-1.774a.283.283 0 0 0-.4.4l2 2c.003.002.007.003.01.006a.114.114 0 0 0 .008.01c.027.015.054.03.081.047.032.012.066.02.1.02a.282.282 0 0 0 .112-.025.286.286 0 0 0 .032-.021c.02-.01.04-.023.057-.037l.007-.01c.002-.004.006-.005.009-.007A7.342 7.342 0 0 0 9.273 1.333z"/></g><g><path fill="#a51515" d="M14.137 13.99a.263.263 0 0 0-.01-.051.275.275 0 0 0-.029-.05.26.26 0 0 0-.02-.037l-.01-.008c-.003-.003-.004-.007-.008-.01L11.45 11.3a.283.283 0 0 0-.396.406l2.381 2.308A6.765 6.765 0 0 1 3.94 4.512l1.792 1.793a.282.282 0 1 0 .4-.4L4.113 3.889l-.008-.005-.007-.009a.284.284 0 0 0-.04-.023.284.284 0 0 0-.049-.028.248.248 0 0 0-.053-.01.275.275 0 0 0-.05-.006.257.257 0 0 0-.056.01.254.254 0 0 0-.05.014.259.259 0 0 0-.047.032.254.254 0 0 0-.038.024c-.002.003-.003.007-.006.01-.002.002-.006.003-.008.006A7.338 7.338 0 0 0 14.047 14.25l.009-.01.01-.007a.268.268 0 0 0 .023-.036.272.272 0 0 0 .03-.048.602.602 0 0 0 .024-.104.258.258 0 0 0-.006-.054z"/></g><g><path fill="#a51515" d="M10.12 7.85a.278.278 0 0 0-.031-.124.279.279 0 0 0-.04-.06l-.018-.02a.278.278 0 0 0-.078-.054l-.004-.001-1.24-.552v-.731l1.977.879v2.771l-.565-.251zm-5.084.435l1.978.879v2.772l-1.978-.88zm4.52 2.773l-1.977.879V9.164l1.977-.879zM7.296 7.03l1.017.452.005.003.825.367-1.847.82-1.847-.822zm3.672-1.977l1.847.82-1.847.82-1.847-.82zm.283 2.134l1.977-.878V9.08l-1.977.88zm2.522-1.412a.285.285 0 0 0-.053-.087c-.005-.007-.01-.014-.017-.02a.278.278 0 0 0-.078-.053l-.004-.002-2.537-1.128h-.007a.284.284 0 0 0-.063-.014.306.306 0 0 0-.046-.01.278.278 0 0 0-.046.009.285.285 0 0 0-.069.015L8.316 5.613l-.004.002a.272.272 0 0 0-.095.073.285.285 0 0 0-.04.06c-.005.01-.01.017-.013.026a.285.285 0 0 0-.02.099v.915l-.732-.325c-.003 0-.005 0-.007-.002a1.411 1.411 0 0 0-.109-.022.293.293 0 0 0-.046.008.288.288 0 0 0-.069.016L4.644 7.59l-.004.002a.27.27 0 0 0-.095.073.281.281 0 0 0-.041.06l-.012.027a.288.288 0 0 0-.02.098v3.39a.246.246 0 0 0 .007.036c0 .043.015.084.043.116.009.015.019.03.03.044.018.017.038.03.06.042a.271.271 0 0 0 .028.02l.004.002 2.537 1.128h.002l.015.004c.03.012.063.019.097.02h.002a.284.284 0 0 0 .097-.02l.015-.004h.002L9.948 11.5l.004-.002a.225.225 0 0 0 .028-.02.294.294 0 0 0 .06-.042.29.29 0 0 0 .03-.044.273.273 0 0 0 .028-.047.28.28 0 0 0 .014-.069.268.268 0 0 0 .009-.036v-.915l.733.326h.002l.014.004a.28.28 0 0 0 .097.02h.003a.281.281 0 0 0 .096-.02l.015-.004h.002l2.537-1.128.005-.002a.243.243 0 0 0 .028-.02.289.289 0 0 0 .06-.042.29.29 0 0 0 .03-.044.263.263 0 0 0 .028-.047.283.283 0 0 0 .013-.068.278.278 0 0 0 .01-.037v-3.39a.28.28 0 0 0-.02-.098z"/></g></g></g></svg>