<svg xmlns="http://www.w3.org/2000/svg" width="17" height="18" viewBox="0 0 17 18"><g><g><g><path fill="#a51515" d="M10.105 8.795a.247.247 0 1 0-.35.35l3.624 3.62a.247.247 0 0 0 .372-.026 6.583 6.583 0 0 0 1.343-4.004c0-1.67-.623-3.267-1.754-4.496a6.632 6.632 0 0 0-4.297-2.122.247.247 0 1 0-.044.493 6.138 6.138 0 0 1 3.977 1.964A6.13 6.13 0 0 1 14.6 8.735c0 1.255-.37 2.45-1.076 3.475z"/></g><g><path fill="#a51515" d="M8.113 2.341a.248.248 0 0 0-.269-.224 6.627 6.627 0 0 0-3.408 1.315.248.248 0 0 0-.026.372l4.531 4.527a.246.246 0 0 0 .35 0 .247.247 0 0 0 0-.35l-4.325-4.32A6.13 6.13 0 0 1 7.888 2.61a.247.247 0 0 0 .225-.269z"/></g><g><path fill="#a51515" d="M8.443 14.885c-3.394 0-6.155-2.759-6.155-6.15 0-1.246.366-2.435 1.063-3.456l8.551 8.544a6.103 6.103 0 0 1-3.459 1.062zM3.302 4.651a.247.247 0 0 0-.18.099 6.585 6.585 0 0 0-1.33 3.985c0 3.664 2.984 6.645 6.651 6.645 1.452 0 2.831-.459 3.99-1.327a.248.248 0 0 0 .025-.373L3.494 4.723a.248.248 0 0 0-.192-.072z"/></g><g><path fill="#a51515" d="M14.414 2.77A8.392 8.392 0 0 0 8.444.299a8.392 8.392 0 0 0-5.971 2.47A8.378 8.378 0 0 0 0 8.736c0 2.15.81 4.198 2.28 5.766a8.413 8.413 0 0 0 5.57 2.65.248.248 0 0 0 .033-.494 7.92 7.92 0 0 1-5.242-2.494A7.909 7.909 0 0 1 .495 8.735c0-2.121.826-4.115 2.328-5.615A7.9 7.9 0 0 1 8.443.794a7.9 7.9 0 0 1 5.621 2.326 7.886 7.886 0 0 1 2.328 5.615 7.909 7.909 0 0 1-2.146 5.428 7.92 7.92 0 0 1-5.243 2.494.247.247 0 0 0 .035.494 8.413 8.413 0 0 0 5.569-2.65 8.402 8.402 0 0 0 2.28-5.766 8.378 8.378 0 0 0-2.473-5.965z"/></g></g></g></svg>