<svg xmlns="http://www.w3.org/2000/svg" width="18" height="18" viewBox="0 0 18 18"><g><g><g><g><g><path fill="#a51515" d="M3.37 16.487a3.035 3.035 0 0 1 1.555-1.542.332.332 0 1 0-.267-.608 3.696 3.696 0 0 0-2.003 2.15H1.529a4.962 4.962 0 0 1 5.35-3.128c.14.021.28-.05.344-.177a2.264 2.264 0 0 1 2.022-1.238c.857 0 1.632.475 2.023 1.238a.333.333 0 0 0 .344.177 4.962 4.962 0 0 1 5.35 3.127zm5.543-8.498c-.004.06-.009.118-.015.172l-1.94-1.94a.332.332 0 0 0-.47.47l1.94 1.94c-.75.08-2.12.007-3.352-1.224-1.49-1.49-1.293-3.161-1.159-3.758a3.97 3.97 0 0 1 1.127-.079c.994.071 1.879.488 2.63 1.239.75.75 1.167 1.635 1.237 2.629l.002.026zm1.39-6.473C10.95.882 12.008.8 12.512.8c.013.517-.042 1.615-.69 2.25-.486.478-1.218.63-1.768.67l1.001-1.001a.332.332 0 0 0-.47-.47l-.984.984c.054-.54.222-1.245.702-1.717zm7.439 15.213a5.647 5.647 0 0 0-1.984-2.928 5.564 5.564 0 0 0-1.923-.96.67.67 0 0 1 .667-.614.332.332 0 0 0 0-.665c-.399 0-.757.177-1.002.455a1.332 1.332 0 0 0-1.003-.455.332.332 0 0 0 0 .665c.3 0 .554.197.64.469a5.705 5.705 0 0 0-1.394-.023 2.922 2.922 0 0 0-2.101-1.367l.006-.006 1.214-1.214a4.731 4.731 0 0 0 1.39.109c.846-.055 2.093-.36 3.238-1.505 1.144-1.144 1.45-2.392 1.504-3.237.06-.918-.155-1.568-.164-1.595a.332.332 0 0 0-.233-.216l-.004-.001a4.598 4.598 0 0 0-1.198-.168h-.004a.332.332 0 0 0-.004.665c.365.004.66.053.856.098.052.226.124.662.086 1.202-.075 1.052-.515 1.988-1.31 2.782-.793.794-1.73 1.235-2.781 1.31-.308.021-.58.007-.8-.019l2.436-2.437a.332.332 0 0 0-.47-.47l-2.437 2.437c-.09-.786-.031-2.26 1.291-3.582.26-.26.538-.484.829-.668a.332.332 0 0 0-.356-.562c-.332.21-.649.466-.943.76-1.145 1.144-1.45 2.392-1.504 3.237a4.82 4.82 0 0 0 .108 1.39l-.814.815V4.398l.122.001c.651 0 1.817-.118 2.588-.874 1.036-1.017.897-2.792.869-3.065a.331.331 0 0 0-.31-.313c-.158-.014-1.95-.144-3.01.895-.953.935-.942 2.478-.916 2.932a.332.332 0 0 0-.008.072v1.27a5.127 5.127 0 0 0-.77-.978c-1.09-1.09-2.279-1.38-3.084-1.433-.875-.056-1.495.149-1.52.157a.332.332 0 0 0-.217.233v.003c-.125.426-.647 2.648 1.284 4.579 1.09 1.09 2.279 1.38 3.084 1.433a4.746 4.746 0 0 0 1.223-.081v2.07c-.894.1-1.69.603-2.165 1.374a5.662 5.662 0 0 0-1.393.023.671.671 0 0 1 .639-.469.332.332 0 0 0 0-.665c-.4 0-.758.177-1.003.455a1.332 1.332 0 0 0-1.002-.455.332.332 0 0 0 0 .665c.35 0 .638.27.667.613-.691.19-1.34.513-1.923.96A5.646 5.646 0 0 0 .75 16.73a.332.332 0 0 0 .32.422h16.353a.332.332 0 0 0 .32-.423z"/></g></g></g><g><g><g><path fill="#a51515" d="M14.434 3.883a.332.332 0 0 0-.409-.231l-.026.007a.332.332 0 1 0 .183.64l.021-.007a.332.332 0 0 0 .231-.41z"/></g></g></g><g><g><g><path fill="#a51515" d="M6.148 14.025h-.02a.332.332 0 0 0 .001.665H6.148a.332.332 0 0 0 0-.665z"/></g></g></g></g></g></svg>