<svg xmlns="http://www.w3.org/2000/svg" width="38" height="36" viewBox="0 0 38 36"><g><g><g><g><g><path fill="#fff" d="M36.479 12.24l-2.36 8.682a.33.33 0 0 0-.008.032c-.236 1.115-1.007 1.746-1.454 2.026-3.184 1.777-3.452 1.815-4.241 2.849-.7.919-.72 1.782-.757 2.302l-5.28-.387c.117-1.159.325-2.292.617-3.376.359-1.332.607-1.694 2.39-3.905.52-.618.965-.795 4.346-2.682.713-.398 1.121.106 1.226.265l.003.004.006.01c.124.19.272.558-.137.867-.89.676-3.004 2.291-3.026 2.307a.55.55 0 1 0 .67.875c.02-.016 2.133-1.63 3.022-2.304.822-.623.795-1.497.538-2.082 2.565-6.163 2.475-5.957 2.475-5.957.213-.662.6-1.117 1.287-.957.865.244.729 1.204.683 1.432zm-2.808-1.325c-.118.23.114-.268-1.5 3.609l-.207-2.888c-.067-.93 1.09-1.42 1.707-.721zm2.407-1.17a.595.595 0 0 0-.017-.005c-.637-.153-1.22-.034-1.689.316-1.355-1.294-3.645-.25-3.507 1.659l.317 4.403c.013.18.05.356.108.525l-.07.168c-.517-.312-1.231-.435-2.025.008-3.482 1.943-3.987 2.143-4.656 2.94a.651.651 0 0 0-.006.008c-1.783 2.21-2.175 2.733-2.6 4.314a22.453 22.453 0 0 0-.654 3.582l-.298-.022a1.162 1.162 0 0 0-1.245 1.075l-.437 5.972a1.17 1.17 0 0 0 1.167 1.255h8.075c.614 0 1.13-.48 1.176-1.092l.11-1.514a.55.55 0 1 0-1.098-.08l-.111 1.514a.077.077 0 0 1-.077.07h-8.076a.066.066 0 0 1-.05-.021.065.065 0 0 1-.018-.051l.438-5.972a.059.059 0 0 1 .02-.042.063.063 0 0 1 .045-.015c.84.062 6.676.49 8.055.59.034.003.059.032.057.066l-.095 1.29a.55.55 0 1 0 1.099.08l.094-1.29a1.164 1.164 0 0 0-1.075-1.244l-.278-.02c.032-.436.028-1.051.535-1.715.632-.83.733-.786 3.914-2.561a.496.496 0 0 0 .023-.014c.476-.296 1.618-1.155 1.956-2.725.006-.024 2.364-8.69 2.369-8.715.173-.819.056-2.317-1.476-2.737z"/></g></g></g><g><g><g><path fill="#fff" d="M27.153 7.691a5.104 5.104 0 0 1-5.098 5.098h-1.393l5.09-4.858a.55.55 0 1 0-.76-.797l-5.155 4.92v-1.066a5.104 5.104 0 0 1 5.099-5.098h2.217zm-8.417 4.302zM9.999 3.09a.55.55 0 0 0-.787.772l8.762 8.927h-2.126c-4.525 0-8.206-3.681-8.206-8.206V1.487h2.887c4.525 0 8.207 3.682 8.207 8.207v2.299zm14.937 1.698a6.202 6.202 0 0 0-5.299 2.984C18.75 3.558 15.003.386 10.53.386H7.573c-.57 0-1.033.463-1.033 1.032v3.165c0 5.132 4.176 9.308 9.308 9.308h6.207c3.418 0 6.2-2.781 6.2-6.2V5.8c0-.558-.454-1.012-1.012-1.012z"/></g></g></g><g><g><g><path fill="#fff" d="M9.968 28.131c-.034-.452-.036-1.356-.758-2.302-.788-1.034-1.057-1.072-4.241-2.849-.447-.28-1.218-.911-1.453-2.026a.79.79 0 0 0-.008-.032l-2.36-8.682c-.046-.227-.183-1.187.683-1.43.446-.105.77.04 1.024.407.13.19-.09-.287 2.737 6.506-.257.585-.283 1.46.539 2.082.889.674 3.001 2.288 3.022 2.305a.548.548 0 0 0 .772-.104.55.55 0 0 0-.103-.772c-.021-.016-2.135-1.631-3.026-2.307-.52-.394-.187-.955.203-1.187.27-.162.555-.149.895.041 3.381 1.887 3.827 2.064 4.346 2.682 1.783 2.211 2.032 2.573 2.39 3.905.293 1.084.5 2.217.618 3.376zM5.663 11.636l-.209 2.888c-1.65-3.966-1.376-3.37-1.499-3.61.618-.699 1.774-.205 1.708.722zm12.664 23.052l-.437-5.972a1.156 1.156 0 0 0-.4-.795c-.409-.353-.81-.282-1.143-.258a22.429 22.429 0 0 0-.653-3.582c-.426-1.58-.818-2.104-2.6-4.314l-.007-.008c-.67-.799-1.178-1-4.656-2.94-.794-.443-1.508-.32-2.025-.008l-.07-.168c.119-.343.077-.097.425-4.928.137-1.893-2.14-2.964-3.507-1.659-1.31-.977-3.699-.024-3.182 2.426.005.024 2.363 8.692 2.37 8.715.337 1.57 1.48 2.429 1.955 2.725.06.037 1.309.726 1.37.76 1.889 1.042 2.043 1.127 2.567 1.815.504.66.502 1.268.535 1.714l-.278.02a1.164 1.164 0 0 0-1.075 1.245l.394 5.375a1.183 1.183 0 0 0 1.175 1.092h2.551a.55.55 0 1 0 0-1.101H9.085a.077.077 0 0 1-.077-.071c-.417-5.693-.426-5.434-.337-5.44 8.506-.624 8.114-.607 8.12-.534l.438 5.972a.065.065 0 0 1-.018.051.066.066 0 0 1-.05.022h-2.954a.55.55 0 1 0 0 1.101h2.953a1.17 1.17 0 0 0 1.167-1.255z"/></g></g></g></g></g></svg>