<svg xmlns="http://www.w3.org/2000/svg" width="16" height="37" viewBox="0 0 16 37"><g><g><g><path fill="#fff" d="M1.393 34.757v-1.73h13.2v1.73zm.62-19.703l3.448-2.703a.696.696 0 0 0 .254-.677c-.132-.702-.2-1.44-.2-2.193 0-1.442.256-2.84.707-3.915h3.544c.452 1.074.707 2.473.707 3.915 0 .757-.068 1.495-.2 2.193a.696.696 0 0 0 .254.678l3.446 2.702c.394.31.62.774.62 1.275v1.3h-13.2v-1.3c0-.501.225-.966.62-1.275zM5.206 1.893h5.57v2.28h-5.57zM15.29 27.764a.696.696 0 0 0-.696.697v3.173h-13.2V19.02h13.2v3.173a.696.696 0 0 0 1.392 0v-5.866c0-.93-.42-1.794-1.153-2.37l-3.119-2.445c.101-.656.152-1.338.152-2.032 0-1.416-.214-2.768-.61-3.915h.219a.696.696 0 0 0 .696-.697V1.196A.696.696 0 0 0 11.474.5H4.51a.696.696 0 0 0-.696.696V4.87c0 .385.312.697.696.697h.222c-.396 1.147-.61 2.499-.61 3.915 0 .691.05 1.373.152 2.03L1.153 13.96A2.995 2.995 0 0 0 0 16.329v19.124c0 .385.312.696.696.696H15.29a.696.696 0 0 0 .696-.696v-6.992a.696.696 0 0 0-.696-.697z"/></g><g><path fill="#fff" d="M14.593 25.327a.696.696 0 1 1 1.392 0 .696.696 0 0 1-1.392 0z"/></g><g><path fill="#fff" d="M7.993 25.468c-1.51 0-2.786-.763-2.786-1.665 0-.903 1.276-1.665 2.786-1.665s2.785.762 2.785 1.665c0 .902-1.276 1.665-2.785 1.665zm0-4.723c-2.343 0-4.178 1.343-4.178 3.058 0 1.714 1.835 3.057 4.178 3.057 2.342 0 4.177-1.343 4.177-3.057 0-1.715-1.835-3.058-4.177-3.058z"/></g><g><path fill="#fff" d="M4.511 28.517a.696.696 0 0 0 0 1.392h6.963a.696.696 0 1 0 0-1.392z"/></g></g></g></svg>