<svg xmlns="http://www.w3.org/2000/svg" width="34" height="37" viewBox="0 0 34 37"><g><g><g><path fill="#fff" d="M4.26 2l-.174-.29.677-.225c.213-.071.437-.108.662-.109h.107c.483 0 .952.165 1.33.468a3.33 3.33 0 0 0 2.08.733h7.434v1.2H6.785v1.198h9.591v1.2H5.565A9.305 9.305 0 0 0 4.26 2zm15.449 11.428l-1.478-3.45a8.074 8.074 0 0 1-.555-1.928 3.295 3.295 0 0 1 5.295 2.62v2.998h1.199V10.67a4.493 4.493 0 0 0-6.595-3.974V5.374a5.699 5.699 0 0 1 7.794 5.296v2.848h1.199V10.67a6.9 6.9 0 0 0-8.993-6.569V1.978a.6.6 0 0 0-.6-.6H8.943c-.483 0-.952-.166-1.329-.468C6.738.206 5.475-.015 4.384.347L2.998.81a.6.6 0 0 0-.324.876l.558.931a8.104 8.104 0 0 1 1.155 4.157v.012a8.294 8.294 0 0 1-.656 3.192l-1.794 4.188a14.177 14.177 0 0 0-.915 8.146l1.18-.216a12.978 12.978 0 0 1 .837-7.458l1.794-4.188a9.486 9.486 0 0 0 .733-3.077h10.83a9.266 9.266 0 0 0 .733 3.077l1.478 3.45z"/></g><g><path fill="#fff" d="M20.046 18.764c-.04-1-.064-2-.07-2.998H31.96c-.007.997-.03 1.997-.07 2.998zm12.517-4.197h-13.19a.6.6 0 0 0-.599.6c0 2.976.15 5.978.443 8.95-.176.492-.38.974-.615 1.443l-.798 1.596h-.64v1.2h1.01a.6.6 0 0 0 .537-.332l.77-1.54 1.096 9.137a.6.6 0 0 0 .595.528h9.592a.6.6 0 0 0 .595-.528l.396-3.295-1.19-.143-.333 2.767h-8.528l-1.092-9.102a89.866 89.866 0 0 1-.51-5.885h11.732a89.86 89.86 0 0 1-.51 5.885l-.597 4.979 1.19.143.598-4.98c.43-3.591.646-7.206.647-10.823a.6.6 0 0 0-.6-.6z"/></g><g><path fill="#fff" d="M7.553 9.935l-1.155-.322c-.099.353-.216.7-.351 1.042l1.115.441c.15-.38.28-.767.39-1.16z"/></g><g><path fill="#fff" d="M4.14 15.113c-.236.552-.43 1.121-.58 1.702l1.16.3c.136-.522.31-1.034.523-1.53l1.53-3.57-1.102-.473z"/></g><g><path fill="#fff" d="M21.422 21.806c.031.412.065.828.102 1.237l1.194-.107c-.036-.403-.07-.814-.1-1.22z"/></g><g><path fill="#fff" d="M22.364 30.381l1.19-.143-.56-4.676a87.66 87.66 0 0 1-.161-1.436l-1.193.123c.05.487.105.977.162 1.456z"/></g><g><g><path fill="#fff" d="M12.055 35.275c-1.916 0-3.621-1.082-3.644-1.944.033-.095.203-.285.28-.298.134 0 .18.04.303.148l.077.066c.918.768 3.086.607 4.754.051 1.856-.618 2.254-1.834 2.518-2.638.152-.463.23-.644.37-.695.05.165.107.588.107 1.666 0 1.762-1.252 3.644-4.765 3.644zM.56 28.267c0-3.458 2.71-6.167 6.167-6.167 1.054 0 2.104-.038 2.649-.31a.854.854 0 0 0 .428-.51c.205-.617-.114-1.581-.358-2.171.74.312.92 1.306.93 1.355l.089.537.385-.385c.166-.166.322-.47.437-.735.2.402.206.812.206.817v.495l1.176-.706-.404 1.214.245.098c.65.26.955.723 1.098 1.1-.427-.19-.924-.262-1.323-.168-.386.091-.662.333-.778.681-.146.438.098.886.407 1.453.408.75.963 1.777.978 3.34l-.45.903h-.888l-.307 1.229-.875.583v.315l-.205-.205-1.197.399v1.089a.878.878 0 0 0-.28-.046c-.417 0-.841.54-.841.84 0 .332.134.658.368.96a6.443 6.443 0 0 1-1.49.162 6.174 6.174 0 0 1-6.167-6.167zm13.736 1.156v.465l-1.007-.202-.192-.578h-.03l.281-.56h.73zm.11 3.008l-.558-.744.729-.547.693.52a2.71 2.71 0 0 1-.864.771zm-1.886.626l-.219-.436.71-.71h.304l.574.766c-.077.03-.157.061-.242.09-.371.123-.752.22-1.127.29zm-1.695-.585h.775l.338.676a6.384 6.384 0 0 1-1.462.022zm-.42-.412l-.5.997a1.545 1.545 0 0 1-.374-.17v-1.054l.485-.162zm1.088-1.213l.605.403.196.586-.257.256-.09-.18h-.899l-.116-.117v-.575zm1.2-1.178l.161.485-.556.555-.485-.323.18-.717zm.8.63l.803.16v.19l-.934.702h-.583l-.042.041-.082-.246.84-.841zm1.849-.87l.624.624a5.504 5.504 0 0 0-.156.432c-.072.219-.15.452-.257.686l-.696-.521v-1.06zm1.477-.04a.785.785 0 0 0-.536.188l-.79-.79-.718.24-.26-1.04h-1.072c-.064-1.585-.642-2.665-1.037-3.39-.243-.447-.435-.8-.367-1.007.055-.164.178-.266.375-.313.423-.1 1.079.098 1.404.423l.478.478v-.677c0-.061-.016-1.435-1.336-2.112l.72-2.162L12 20.237c-.07-.332-.23-.781-.587-1.139l-.32-.32-.144.43a5.87 5.87 0 0 1-.21.533c-.271-.618-.82-1.286-1.767-1.286h-.455l.204.407c.303.6.72 1.738.553 2.24-.04.121-.103.164-.147.186-.501.251-1.83.251-2.398.251-3.772 0-6.727 2.955-6.727 6.728a6.736 6.736 0 0 0 6.727 6.728 6.71 6.71 0 0 0 1.944-.266c.794.65 2.065 1.107 3.383 1.107 3.927 0 5.326-2.172 5.326-4.205 0-1.55-.081-2.243-.56-2.243z"/></g><g><path fill="#fff" d="M12.335 34.154v.56c1.46 0 2.94-.86 3.282-1.203l-.397-.396c-.25.25-1.594 1.039-2.885 1.039z"/></g><g><path fill="#fff" d="M11.214 34.154h.56v.56h-.56z"/></g><g><path fill="#fff" d="M1.122 28.267c0 .605.096 1.2.286 1.77l.532-.177a5.023 5.023 0 0 1-.258-1.593c0-1.445.566-2.765 1.593-3.72l-.382-.41c-1.142 1.06-1.771 2.528-1.771 4.13z"/></g><g><path fill="#fff" d="M5.132 23.488a5.216 5.216 0 0 1 1.596-.267v-.56c-.568 0-1.162.098-1.768.293z"/></g></g></g></g></svg>