<svg xmlns="http://www.w3.org/2000/svg" width="36" height="37" viewBox="0 0 36 37"><g><g><g><path fill="#fff" d="M18.003 34.951c-9.28 0-16.803-7.523-16.803-16.803 0-9.28 7.523-16.803 16.803-16.803 9.28 0 16.803 7.523 16.803 16.803-.01 9.276-7.527 16.792-16.803 16.803zm0-34.806C8.06.145 0 8.205 0 18.148s8.06 18.003 18.003 18.003 18.003-8.06 18.003-18.003C35.996 8.209 27.941.156 18.003.145z"/></g><g><path fill="#fff" d="M18.003 2.545a15.58 15.58 0 0 0-10.068 3.7c-.007.007-.01.015-.017.022-.007.007-.015.008-.021.014a.613.613 0 0 0-.05.076.706.706 0 0 0-.12.324 1.3 1.3 0 0 0 .034.225.622.622 0 0 0 .056.1.58.58 0 0 0 .047.086c.007.007.015.01.022.017.006.007.007.014.013.02l4.88 4.844a.6.6 0 1 0 .843-.852L9.228 6.758a14.375 14.375 0 0 1 18.96 1.209 14.376 14.376 0 0 1 1.204 18.96l-3.767-3.767a.6.6 0 0 0-.85.849l4.25 4.249c.006.005.014.007.02.013a.25.25 0 0 0 .016.02l.174.1c.068.027.14.042.213.042a.599.599 0 0 0 .237-.05.605.605 0 0 0 .068-.046.57.57 0 0 0 .12-.08c.007-.006.009-.015.014-.021.007-.007.014-.009.02-.014A15.597 15.597 0 0 0 18.003 2.545z"/></g><g><path fill="#fff" d="M28.336 29.435a.56.56 0 0 0-.023-.11.58.58 0 0 0-.06-.106.552.552 0 0 0-.044-.08c-.006-.006-.015-.01-.02-.016-.007-.007-.01-.016-.017-.022l-5.548-5.383a.602.602 0 0 0-.84.862l5.058 4.905a14.371 14.371 0 0 1-19.034-1.152A14.371 14.371 0 0 1 6.673 9.298l3.806 3.809a.6.6 0 1 0 .849-.849L7.043 7.974c-.005-.006-.013-.008-.019-.013-.005-.005-.007-.012-.013-.018a.606.606 0 0 0-.085-.048.606.606 0 0 0-.104-.06.528.528 0 0 0-.114-.022A.585.585 0 0 0 6.6 7.8a.544.544 0 0 0-.117.022.54.54 0 0 0-.105.03.55.55 0 0 0-.102.067.541.541 0 0 0-.08.052c-.005.006-.007.013-.012.019-.006.005-.013.008-.018.014-5.297 6.185-4.941 15.404.816 21.162 5.757 5.758 14.977 6.115 21.162.82.007-.006.01-.015.017-.022.007-.007.015-.008.022-.015a.57.57 0 0 0 .05-.077.575.575 0 0 0 .065-.101c.023-.072.04-.147.05-.222a.548.548 0 0 0-.013-.114z"/></g><g><path fill="#fff" d="M19.803 16.39a.59.59 0 0 0-.067-.264.594.594 0 0 0-.087-.128c-.013-.015-.023-.03-.037-.042a.59.59 0 0 0-.165-.114l-.01-.004-2.634-1.17v-1.555l4.2 1.867v5.888l-1.2-.534zm-10.802.924l4.201 1.867v5.888l-4.2-1.867zm9.602 5.89l-4.2 1.867v-5.89l4.2-1.867zm-4.8-8.556l2.16.96.01.005 1.752.78-3.923 1.741L9.88 16.39zm7.8-4.2l3.924 1.743-3.923 1.742-3.924-1.744zm.6 4.534l4.201-1.867v5.888l-4.2 1.867zm5.36-3a.605.605 0 0 0-.112-.184c-.013-.015-.024-.03-.037-.043a.59.59 0 0 0-.166-.114l-.009-.004-5.39-2.395h-.014a.604.604 0 0 0-.134-.03.65.65 0 0 0-.097-.021.59.59 0 0 0-.098.017.607.607 0 0 0-.147.033l-5.39 2.396-.008.004a.577.577 0 0 0-.202.155.605.605 0 0 0-.087.129l-.026.055a.606.606 0 0 0-.042.209v1.944l-1.556-.691c-.005 0-.01 0-.015-.004a2.993 2.993 0 0 0-.23-.047.62.62 0 0 0-.099.018.609.609 0 0 0-.146.033l-5.39 2.396-.009.004a.573.573 0 0 0-.202.155.598.598 0 0 0-.086.129.611.611 0 0 0-.068.264v7.201a.521.521 0 0 0 .015.077c0 .09.032.177.092.245.018.034.04.065.063.095a.59.59 0 0 0 .126.089c.02.015.04.03.06.042l.01.005 5.39 2.395h.004c.01.005.02.005.03.009.066.026.136.04.206.042h.006a.602.602 0 0 0 .205-.042c.01-.004.021-.004.032-.009h.004l5.39-2.395.009-.005a.481.481 0 0 0 .06-.042.624.624 0 0 0 .127-.09.618.618 0 0 0 .063-.094.581.581 0 0 0 .06-.098.595.595 0 0 0 .03-.146.57.57 0 0 0 .018-.077v-1.945l1.557.693h.004c.01.004.021.004.031.008.066.026.135.04.206.042h.006a.597.597 0 0 0 .205-.042c.01-.004.02-.004.031-.008h.004l5.39-2.396.01-.004a.511.511 0 0 0 .06-.042.613.613 0 0 0 .127-.09.618.618 0 0 0 .063-.094.561.561 0 0 0 .06-.099.602.602 0 0 0 .03-.146.586.586 0 0 0 .018-.078V12.19a.594.594 0 0 0-.042-.209z"/></g></g></g></svg>