<svg xmlns="http://www.w3.org/2000/svg" width="36" height="37" viewBox="0 0 36 37"><g><g><g><path fill="#fff" d="M21.468 18.398a.525.525 0 1 0-.742.743l7.696 7.69a.525.525 0 0 0 .79-.055 13.985 13.985 0 0 0 2.854-8.507c0-3.548-1.323-6.94-3.726-9.551a14.09 14.09 0 0 0-9.13-4.508.525.525 0 1 0-.093 1.046 13.04 13.04 0 0 1 8.45 4.173 13.022 13.022 0 0 1 3.448 8.84c0 2.666-.789 5.205-2.287 7.382z"/></g><g><path fill="#fff" d="M17.235 4.686a.526.526 0 0 0-.57-.476 14.079 14.079 0 0 0-7.241 2.794.526.526 0 0 0-.055.79l9.626 9.618a.523.523 0 0 0 .743 0 .525.525 0 0 0 0-.744l-9.189-9.18a13.022 13.022 0 0 1 6.209-2.232.526.526 0 0 0 .477-.57z"/></g><g><path fill="#fff" d="M17.937 31.335c-7.21 0-13.077-5.861-13.077-13.065 0-2.648.779-5.174 2.258-7.342l18.167 18.15a12.966 12.966 0 0 1-7.348 2.257zM7.014 9.595a.526.526 0 0 0-.382.208 13.989 13.989 0 0 0-2.823 8.467c0 7.783 6.338 14.116 14.128 14.116 3.084 0 6.014-.975 8.474-2.82a.527.527 0 0 0 .056-.792L7.423 9.747a.527.527 0 0 0-.409-.153z"/></g><g><path fill="#fff" d="M30.62 5.597A17.829 17.829 0 0 0 17.938.347a17.829 17.829 0 0 0-12.683 5.25A17.797 17.797 0 0 0 0 18.27c0 4.567 1.72 8.917 4.843 12.249a17.872 17.872 0 0 0 11.832 5.629.526.526 0 0 0 .072-1.049A16.824 16.824 0 0 1 5.61 29.8a16.801 16.801 0 0 1-4.559-11.53c0-4.506 1.756-8.742 4.946-11.929A16.784 16.784 0 0 1 17.937 1.4c4.51 0 8.751 1.755 11.94 4.941a16.753 16.753 0 0 1 4.947 11.93c0 4.299-1.62 8.394-4.56 11.53a16.824 16.824 0 0 1-11.137 5.3.526.526 0 0 0 .073 1.048 17.872 17.872 0 0 0 11.831-5.63 17.848 17.848 0 0 0 4.844-12.248c0-4.788-1.866-9.288-5.254-12.673z"/></g></g></g></svg>