<svg xmlns="http://www.w3.org/2000/svg" width="1921" height="499.243" viewBox="0 0 1921 499.243"><path d="M947.063,569.48a10.524,10.524,0,0,1-1.968-.446,50.178,50.178,0,0,1-18.872-10.183,115.726,115.726,0,0,1-10.795-10.785,33.782,33.782,0,0,1-6.52-11.434,23.14,23.14,0,0,1-1.377-10.662c.152-1.245-.055-2.529.028-3.784.135-2.049.341-4.1.571-6.135s.722-4.084.753-6.132a34.842,34.842,0,0,1,1.643-8.9c.96-3.435,1.789-6.909,2.6-10.383a35.1,35.1,0,0,0,.468-3.668,13.232,13.232,0,0,1-5.842-5.719c-1.081-1.8-2.237-3.559-3.338-5.35a12.466,12.466,0,0,1-1.452-2.644,5.43,5.43,0,0,1-.085-2.678,1.69,1.69,0,0,1,1.382-.9,7.517,7.517,0,0,1,4.947,2.232,8.911,8.911,0,0,0,1.966,1.751,2.87,2.87,0,0,0,1.99.433,4.269,4.269,0,0,1,3.39.465c.428.228.88.409,1.32.613l.131-.188a7.206,7.206,0,0,0-.488-.651,6.193,6.193,0,0,1-1.77-6.009c.154-.646-.326-1.423-.38-2.15-.044-.6-.117-1.463.222-1.777a1.924,1.924,0,0,0,.346-2.5,18.39,18.39,0,0,1-1.23-3.427,1.991,1.991,0,0,1,3-2.232,10.491,10.491,0,0,1,2.385,1.825c2.347,2.168,4.624,4.416,7,6.553a3.507,3.507,0,0,0,2.2,1.074c2.041-.181,4.07-.091,6.079-1.162a76.234,76.234,0,0,1,12.5-5.68c6.964-2.221,14.234-2.349,21.516-1.843,8.9.616,17.037,3.167,23.859,9.12,3.8,3.312,7.969,6.276,10.8,10.558,2.992,4.529,5.8,9.176,8.768,13.717,2.418,3.691,3.268,7.9,4.213,12.085a10.379,10.379,0,0,1,.144,3.391c-.376,3.346-.751,6.7-1.374,10a30.518,30.518,0,0,1-1.873,5.877,95.217,95.217,0,0,1-8.141,15.673c-2.408,3.7-4.613,7.553-7.223,11.105-2.007,2.734-4.821,4.892-6.715,7.685a23.523,23.523,0,0,1-2.849,3.431c-3.155,3.155-7,5.379-10.844,7.659a5.136,5.136,0,0,1-1.39.591c-3.831.91-7.566,2.074-11.573,2.388-1.369.108-2.732.153-4.091.153C956.39,570.434,951.738,569.886,947.063,569.48Zm-42.637-96.629a26.8,26.8,0,0,0,1.525,2.315c1.107,1.637,2.284,3.23,3.31,4.914a15.137,15.137,0,0,0,5.011,5.069c.626.389,1.186.886,1.778,1.335l.086.726-1.74.147c1.651,4.64-.452,8.907-1.692,13.247a33.506,33.506,0,0,0-1.8,9.626,54.359,54.359,0,0,1-.707,6.008q-.332,3.19-.527,6.392c-.073,1.173.124,2.379-.047,3.531A19.6,19.6,0,0,0,911.331,537a36.643,36.643,0,0,0,5.161,8.911,98.374,98.374,0,0,0,11.113,11.17,48.111,48.111,0,0,0,18.331,9.864,8.035,8.035,0,0,0,1.476.328c6.069.55,12.1,1.262,18.247.744,3.675-.308,7.04-1.575,10.578-2.243a2.188,2.188,0,0,0,.708-.265c4.662-2.822,9.54-5.283,12.866-9.949,1.964-2.754,4.713-4.94,6.775-7.637,2.6-3.4,4.918-7.027,7.266-10.615a88.118,88.118,0,0,0,8.426-16.088,40.522,40.522,0,0,0,2.06-6.737c.569-2.841.814-5.748,1.137-8.635a8.555,8.555,0,0,0-.069-2.639c-.851-4.034-1.7-8.07-3.992-11.623q-3.216-4.98-6.3-10.049c-3.109-5.08-7.533-8.886-11.983-12.708a37.613,37.613,0,0,0-21.137-9.284c-7.665-.8-15.266-.806-22.676,1.243-3.811,1.055-7.4,2.985-11.007,4.68a22.8,22.8,0,0,1-7.09,2.436,6.776,6.776,0,0,1-5.648-1.551c-2.4-2.17-4.705-4.451-7.064-6.668-.652-.609-1.36-1.157-2.041-1.732l-.4.269c.365.949.708,1.905,1.1,2.842.662,1.573.976,3.084-.287,4.051a25.387,25.387,0,0,0,.192,3.849,10.241,10.241,0,0,0,1.247,3.065c.458.783,1.277,1.345,1.8,2.1a2.264,2.264,0,0,1,.148,2.925,2.351,2.351,0,0,1-2.9.5c-.547-.216-1.04-.585-1.595-.759a14.235,14.235,0,0,0-2.838-.686,6.32,6.32,0,0,1-4.445-2.6,6.22,6.22,0,0,0-4.473-2.312A6.877,6.877,0,0,0,904.426,472.852ZM1286.2,552.146c-.018-1.863.174-3.726.266-5.589l-.232-.03c.458-4.117.893-8.239,1.376-12.352.509-4.358,2.281-6.339,6.287-7.135,3.549-.7,7.367.686,8.791,4.062,2.457,5.814,4.431,11.835,6.467,17.816a10.158,10.158,0,0,1,.192,3.789c-.325,5.283-4.711,10.227-9.958,10.552-.472.029-.936.044-1.389.044C1290.914,563.3,1286.282,559.713,1286.2,552.146Zm4.269-17.274a35.828,35.828,0,0,0-.819,4.235c-.284,3.372-.431,6.759-.6,9.537,0,1.453,0,2.3,0,3.151,0,4.353,1.476,6.936,4.39,7.7,4.926,1.3,9.448-.177,11.1-4.188a12.556,12.556,0,0,0,.557-6.64c-.525-2.963-1.834-5.782-2.771-8.674-.545-1.686-1.092-3.376-1.516-5.091a5.746,5.746,0,0,0-5.3-4.656h-.007C1292.732,530.257,1291.127,531.717,1290.467,534.872ZM956.039,555.434l13.872,7.5C964.4,562.014,959.471,560.035,956.039,555.434Zm-13.265,6.609a27.95,27.95,0,0,1-8.679-5.3c-6.872-5.816-12.458-12.634-15.778-21.1a43.218,43.218,0,0,1-1.317-4.93l.513-.215c4.581,14.4,14.076,24.629,26.948,32.018A14.315,14.315,0,0,1,942.773,562.043Zm-12.65-20.457c4.739,4.525,9.31,8.893,13.883,13.261C941.063,553.736,930.684,543.7,930.124,541.586Zm367.242,9.767c1.557-4.01.8-7.537-.985-10.95-.2-.369.214-1.055.339-1.59.606.151,1.432.1,1.775.487,2.383,2.664,3.6,5.771,2.715,9.356a3.248,3.248,0,0,1-3.6,2.7C1297.532,551.357,1297.45,551.355,1297.366,551.353Zm-359.62-5.97a1.336,1.336,0,0,1-.169-1.168,6.127,6.127,0,0,1,1.708-.814l-.026-.881c.194-.041.42-.156.494-.092.413.351,1.18.885,1.1,1.1a4.506,4.506,0,0,1-.978,1.647,2.451,2.451,0,0,1-.32.272,1.077,1.077,0,0,1-.616.151A4.452,4.452,0,0,1,937.746,545.383Zm669.336-.278c-1.939-1.694-2.66-3.918-3.191-6.23a54.583,54.583,0,0,1,.521-25.951,56.528,56.528,0,0,1,5.877-13.71,107.339,107.339,0,0,1,11.12-16.287c3.142-3.762,6.655-7.214,10.032-10.776q6.5-6.85,13.038-13.65c.708-.741,1.408-.595,1.64.435a23.746,23.746,0,0,1,.354,2.915q.207,2.167.38,4.34c.239,2.928.575,5.854.679,8.789a96.729,96.729,0,0,1-.035,10.218,29.219,29.219,0,0,1-1.45,6.255c-2.04,6.742-5.355,12.891-8.982,18.885-.184.3-.342.626-.513.94l.206.143a14.224,14.224,0,0,0,1.511-1.217c2.377-2.5,5.45-3.664,8.616-4.769,4.7-1.642,9.617-1.943,14.458-2.75,1.862-.31,3.7-.742,5.565-1.053a5.089,5.089,0,0,1,1.036-.033,5.039,5.039,0,0,0,1.07-.04c5.688-1.057,11.41-1.977,17.037-3.307a33.062,33.062,0,0,0,9.182-3.4,48.331,48.331,0,0,1,4.718-2.236c.244-.109.589.01.889.023-.054.369.013.823-.179,1.092-1.485,2.067-3.065,4.065-4.525,6.149-2,2.856-3.807,5.859-5.919,8.63-3.277,4.3-6.34,8.854-10.974,11.884a62.65,62.65,0,0,1-14.153,6.77c-5.542,1.9-11.3,2.714-17.012,3.782-6.3,1.174-12.6,2.354-18.832,3.809a50.339,50.339,0,0,0-18.207,8.215c-.911.66-1.72,1.456-2.586,2.179-.245.2-.424.352-.643.352A1.206,1.206,0,0,1,1607.082,545.1Zm-.557-34.685a50.991,50.991,0,0,0-2.55,14.233c-.361,6.776.425,13.388,3.163,19.417a25.012,25.012,0,0,1,2.071-3.148c5.153-5.829,10.373-11.6,15.556-17.4,4.946-5.534,9.957-11.024,13.37-17.714.683-1.338,1.308-2.709,2.1-4.355-1.107,1.033-2,1.863-2.888,2.7a21.62,21.62,0,0,1-6.011,4.466c-5.225,2.272-10.282,4.834-14.459,8.825a4.931,4.931,0,0,0-1.19,1.512q-2.307,5.42-4.49,10.894c-.483,1.217-.773,2.51-1.15,3.768l.26.139c3.444-6.2,8.528-10.728,14.424-14.458a33.076,33.076,0,0,0,8.241-6.921,5.442,5.442,0,0,1,.706-.619,18.047,18.047,0,0,1-5.74,6.607c-1.545,1.03-3.081,2.071-4.621,3.109a39.075,39.075,0,0,0-13.627,15.438c-.427.87-1.363,1.416-1.491,2.523a11,11,0,0,1-.737,2.214l-.3-.089a13.071,13.071,0,0,1,.207-1.708c.845-3.309,1.727-6.61,2.575-9.92a1.229,1.229,0,0,0-.06-.863c-1.177-1.84-2.479-3.6-3.568-5.49a31.317,31.317,0,0,1-1.618-3.882l.276-.1,5.574,8.582c.567-1.463,1.058-2.824,1.621-4.154a8.32,8.32,0,0,0,.144-5.975c-.526-1.629-1.062-3.254-1.629-4.869a21.642,21.642,0,0,1-1.467-7.9,7.444,7.444,0,0,0-.054-.773A40.041,40.041,0,0,0,1606.525,510.42Zm16.755,18.859c-.764.721-1.642,1.321-2.474,1.97-3.092,2.411-5.371,5.564-7.818,8.616,7.465-4.424,15.663-6.728,24.057-8.53a15.117,15.117,0,0,0-1.976-.824,28.134,28.134,0,0,0-8.384-2.257c-.168-.009-.334-.014-.5-.014A3.943,3.943,0,0,0,1623.281,529.278Zm12.689.626a13.749,13.749,0,0,0,5.342.642c4.765-.591,9.488-1.518,14.226-2.32.368-.061.725-.179.987-.247-1.781-.854-3.536-1.712-5.3-2.543a41.038,41.038,0,0,0-11.943-3.27,8.8,8.8,0,0,0-5.917,1.052c-2.386,1.367-4.821,2.646-7.236,3.963l.135.391.216,0C1629.842,527.57,1632.834,529,1635.97,529.9Zm5.909-21.227c-1.794,1-3.488,2.191-5.213,3.317a5.833,5.833,0,0,0-1.327,1.033c-2.35,2.817-4.64,5.682-6.995,8.494-1.721,2.055-3.508,4.051-5.267,6.074l.116.08c2.695-1.57,5.313-3.3,8.1-4.671a24.427,24.427,0,0,0,7.528-5.823c1.89-2.131,3.367-4.628,5.058-6.94.781-1.066,1.641-2.077,2.463-3.113l-.19-.355C1644.725,507.4,1643.234,507.92,1641.878,508.678Zm3.918,13.54c1.508.554,2.885,1.015,4.227,1.563s2.681,1.144,3.982,1.8c3.119,1.562,6.257,2.215,9.593.6,1.139-.552,2.4-.854,3.592-1.3,1.152-.427,2.29-.886,3.7-1.433a64.211,64.211,0,0,0-15.277-1.693C1652.345,521.758,1649.082,521.943,1645.8,522.219Zm18.984-.892c2.18.324,4.43.409,6.409,1.607a1.256,1.256,0,0,0,1-.146c2.231-1.23,4.443-2.493,6.655-3.758a6.7,6.7,0,0,0,.806-.689c-1.615-.1-2.98-.215-4.349-.277-6.792-.306-13.593-.527-20.129-2.749a2.338,2.338,0,0,0-1.38.094c-3.552,1.191-7.1,2.392-10.633,3.647-1.6.569-3.161,1.268-4.739,1.908l.075.473c2.191-.059,4.387-.048,6.572-.188,3.719-.24,7.438-.5,11.156-.5A57.874,57.874,0,0,1,1664.78,521.327Zm-40.495-39.973A133.314,133.314,0,0,0,1610.74,501a4.352,4.352,0,0,0-.848,2.293,66.933,66.933,0,0,0,1.426,8.259c.7,2.781,1.743,5.472,2.723,8.47,1.2-3.442,3.327-6.274,4.267-9.733a9.117,9.117,0,0,0-.444-6.113,44.355,44.355,0,0,1-1.956-6.457,5.461,5.461,0,0,1,.845-4.376c-.078,4.636.768,8.787,2.134,10.316-.168-4.373,1.413-8.191,3.3-11.981a53.776,53.776,0,0,0,2.684-7.128c.51-1.553.776-3.185,1.152-4.783A7.916,7.916,0,0,0,1624.286,481.353Zm30.516,25.232c-1.57,1.239-3.185,2.426-4.711,3.718a22.137,22.137,0,0,1-6.919,4.291,3.744,3.744,0,0,0-1.485.862c-1.328,1.427-2.578,2.927-3.847,4.388.19-.059.455-.123.708-.221q5.72-2.175,11.433-4.365a5.024,5.024,0,0,0,1.217-.711c1.415-1.084,2.871-2.128,4.2-3.312,2.536-2.261,4.995-4.607,7.486-6.918-.339-.3-.474-.341-.6-.322-3.961.6-7.924,1.177-11.876,1.823a3.481,3.481,0,0,0-1.755.782,43.168,43.168,0,0,0-3.531,3.7,32.834,32.834,0,0,0-2.062,3.042l.242.212a14.166,14.166,0,0,0,1.929-.973c1.484-1.047,2.965-2.111,4.359-3.275a15.249,15.249,0,0,1,5.59-3.22A1.156,1.156,0,0,1,1654.8,506.585Zm11.831,9.963c.265.033.472.071.679.084q6.579.4,13.157.793a.983.983,0,0,0,.686-.192c1.38-1.423,2.732-2.875,4.276-4.513-.253-.01-.52-.014-.8-.014h0C1679.03,512.706,1668.664,514.671,1666.633,516.548Zm30.978-21.413c-2.4,1.5-4.8,2.988-7.186,4.5-3.19,2.028-6.2,4.423-9.58,6.051a157.08,157.08,0,0,1-23.137,8.545c-.23.069-.448.179-.672.269l-.019.269c2.29.5,4.578,1.016,6.876,1.49a1.431,1.431,0,0,0,.83-.2,46.414,46.414,0,0,1,15.117-4.038c1.869-.233,3.742-.617,5.628-.007.19.064.575-.212.758-.427.939-1.109,1.9-2.209,2.749-3.386,2.3-3.182,4.531-6.409,6.822-9.595.864-1.2,1.813-2.344,2.723-3.511l-.27-.392C1698.037,494.852,1697.828,495,1697.611,495.135Zm-53.2-5.471c-3.3,2.625-6.492,5.407-9.933,7.834a114.073,114.073,0,0,0-11.81,8.951,5.172,5.172,0,0,0-1.094,1.2c-1.444,2.61-2.835,5.246-4.245,7.874l.23.214c3.091-3.125,7.033-4.865,10.831-6.844a1.805,1.805,0,0,0,.627-.581c2.079-3.109,4.092-6.262,6.236-9.324a49.863,49.863,0,0,1,3.242-3.8l.261.229-8.389,12.785a32.054,32.054,0,0,0,3.549-2.288c2.491-2.121,4.888-4.354,7.3-6.564a3.216,3.216,0,0,0,.723-1.076c.794-1.836,1.6-3.669,2.3-5.542.43-1.147.688-2.361,1.023-3.544A2.084,2.084,0,0,0,1644.412,489.664Zm38.021,10.92c-5.278,1.052-10.612,1.814-15.906,2.794a5.729,5.729,0,0,0-2.657,1.293c-1.46,1.3-2.664,2.888-4.11,4.207-1.875,1.707-3.882,3.267-5.832,4.891l.017.212a13.207,13.207,0,0,0,1.532-.306c6.059-1.965,12.128-3.894,18.159-5.936a63.258,63.258,0,0,0,17.311-9.342,1.543,1.543,0,0,0,.218-.232C1688.237,498.99,1685.376,500,1682.432,500.584Zm-39.757-38.516q-7.6,7.908-15.181,15.833a1.889,1.889,0,0,0-.548,1.021,39.257,39.257,0,0,1-4.717,15.218,20.446,20.446,0,0,0-2.368,9.334,7.687,7.687,0,0,1-.555,1.765l.634,2.744c.16-.25.3-.453.42-.663,1.879-3.2,3.73-6.419,5.642-9.6,2.452-4.084,5.124-8.047,7.393-12.23,2.74-5.051,5.232-10.241,7.68-15.443a24.971,24.971,0,0,0,2.35-8.651C1643.091,461.691,1642.868,461.866,1642.675,462.067Zm1.339-.132a12.123,12.123,0,0,1-.265,3.027,46.742,46.742,0,0,1-3.846,10.531c-4.075,8.764-9.338,16.851-14.342,25.085-.762,1.255-1.489,2.534-2.285,3.9.25-.029.333-.013.379-.046,3.024-2.269,6.067-4.513,9.053-6.829a8.88,8.88,0,0,0,2.344-2.38c1.584-2.769,3.021-5.626,4.445-8.484,1.878-3.773,3.519-7.68,6.482-10.8a1.331,1.331,0,0,0,.325-.881c-.1-2.54-.207-5.08-.371-7.618-.12-1.882-.326-3.758-.492-5.636-.067-.733-.131-1.465-.208-2.318A2.467,2.467,0,0,0,1644.014,461.935Zm-6.348,31.95c2.641-2.043,5.213-4.259,7.758-6.5a1.388,1.388,0,0,0,.365-.884c.2-3.2.379-6.411.561-9.614l-.463-.118ZM943.647,544.128c.187-.406.373-.814.563-1.219a6.632,6.632,0,0,0,.708-1.569c.126-.753.46-.821,1.034-.557.891.406,1.148,1.59.4,2.973a3.76,3.76,0,0,1-1.246.764.726.726,0,0,1-.166.019A5.365,5.365,0,0,1,943.647,544.128Zm-8.155-6.1c-.19-.781.519-.6,1.039-.752a6.894,6.894,0,0,0,2.211-1.3c.1-.081-.356-.857-.555-1.311l.109-.409c.556.3,1.3.477,1.615.941a1.827,1.827,0,0,1,.05,1.652l-.021.019a14.989,14.989,0,0,1-3.264,1.9.222.222,0,0,1-.089.016A1.57,1.57,0,0,1,935.492,538.025Zm25.659-7c.149-.494.653-.882,1-1.32l.442.238c-.1.455-.211.907-.281,1.366a1.661,1.661,0,0,0,1.219,2.057,2.968,2.968,0,0,0,2.942-1.271c.374-1.059-.335-1.6-1.134-1.94-.865-.372-1.8-.587-2.7-.872a1.267,1.267,0,0,1,1.025-.631,7.432,7.432,0,0,1,2.07.5,2.821,2.821,0,0,1,1.984,2.661,1.973,1.973,0,0,1-.6,1.493,4.516,4.516,0,0,1-1.261.815,5.374,5.374,0,0,1-1.682.5,2.792,2.792,0,0,1-.31.017A2.822,2.822,0,0,1,961.151,531.028Zm-5.648-3.841c-.451-.524-.3-1.255.516-1.678a3.127,3.127,0,0,0,.4.508,8.382,8.382,0,0,0,.737.5c.079-.332.3-.719.206-.988a8.26,8.26,0,0,0-.827-1.426,2.189,2.189,0,0,1,1.979,2.091,1.835,1.835,0,0,1-.438,1.4,1.236,1.236,0,0,1-.807.352c-.032,0-.066,0-.1,0A2.469,2.469,0,0,1,955.5,527.187Zm7.321-1.323a1.3,1.3,0,0,1,.319-1.862l1.613.764-.009-2.181c.365-.251.918.025,1.335.745a2.24,2.24,0,0,1-.421,2.6,1.978,1.978,0,0,1-.354.283,2.16,2.16,0,0,1-1.139.33A1.513,1.513,0,0,1,962.825,525.864Zm-41.962-.351a8.72,8.72,0,0,1-2.133-1.9c-.885-1.064-1.6-2.271-2.453-3.361a2.82,2.82,0,0,0-1.346-1.063,1.674,1.674,0,0,1-1.336-1.463,10.47,10.47,0,0,1,.607-6.547c1.019-2.716,2.112-3.367,5.006-2.954,1.416.2,2.824.487,4.247.6,1.88.144,2.573-.491,2.96-2.323a5.264,5.264,0,0,1,.79-2.343c.646-.732.474-1.267.257-2.023a32.275,32.275,0,0,1-1.336-5.474,4.15,4.15,0,0,1,3.676-4.393c3.49-.573,5.252-3.314,4.3-6.668a11.1,11.1,0,0,1-.379-1.725,3.172,3.172,0,0,1,1.984-3.686,17.471,17.471,0,0,0,2.572-1.338c1.836-1.388,4.142-2.633,2.426-5.728,1.666.9,2.085,2.105,1.4,3.559-1.041,2.188-2.96,3.373-5.026,4.4-1.989.986-2.2,1.462-1.624,3.59a12.836,12.836,0,0,1,.509,1.952,4.381,4.381,0,0,1-.122,2.094c-1.1,2.494-2.7,4.413-5.7,4.763a4.413,4.413,0,0,0-2.162,1.282c-1.046.965-.773,2.283-.479,3.451.38,1.5,1.02,2.941,1.435,4.438.141.5.059,1.542-.112,1.585-1.53.39-1.3,1.677-1.517,2.716-.352,1.695-.972,2.383-2.682,2.479a14.993,14.993,0,0,1-3.12-.276c-.828-.13-1.626-.433-2.451-.6-2.366-.478-3.784.349-4.329,2.68a20.115,20.115,0,0,0-.518,4.114c-.026,1.174-.031,2.516,1.71,2.682.242.022.5.31.679.534.9,1.108,1.772,2.236,2.66,3.353a18.691,18.691,0,0,0,1.595,1.939c.828.792,1.536.671,1.945-.4a11.328,11.328,0,0,0,.722-3.168c.105-1.421-.033-2.858-.047-4.288-.015-1.781,1.07-2.587,2.721-1.908a13.287,13.287,0,0,1,2.47,1.493,53.847,53.847,0,0,0,4.717,3.344c1.929,1.056,2.579.587,2.9-1.6.349-2.411,1.16-3.173,3.625-2.822a64.978,64.978,0,0,1,6.372,1.475,25.1,25.1,0,0,0,9.354,1.013c1.72-.224,2.312-1.106,1.5-2.609a8.438,8.438,0,0,0-2.624-3.118,84.561,84.561,0,0,0-7.87-4.24,23.328,23.328,0,0,1-10.4-9.806c-1.756-3.181-1.125-4.164,2.379-4.9a21.394,21.394,0,0,0,4.34-1.576,1.466,1.466,0,0,0,.644-2.159c-.4-.833-.886-1.625-1.281-2.462-.952-2.014-.576-3.557,1.477-4.328a27.541,27.541,0,0,1,6.449-1.513c2.541-.3,5.133-.122,7.69-.328a9.889,9.889,0,0,0,3.329-1c.356-.167.714-1.263.522-1.5-1.365-1.731-2.605-3.655-4.878-4.39-1.078-.35-2.191-.616-3.229-1.056-1.217-.517-1.343-1.293-.443-2.246.519-.549,1.111-1.026,1.677-1.527.481-.426.968-.839,1.452-1.256l-.1-.373a10.406,10.406,0,0,0-2.3-.288c-2.591.249-5.18.557-7.753.954-1.409.218-2.78.68-4.18.976-.259.054-.579-.176-.872-.274a3.432,3.432,0,0,1,.4-.831,1.382,1.382,0,0,1,.676-.313,43.5,43.5,0,0,1,5.384-1.362,69.335,69.335,0,0,1,7.783-.484,2.331,2.331,0,0,1,2.482,1.6c.34,1.238-.7,1.772-1.488,2.384-.734.572-1.5,1.11-2.316,1.715a5.355,5.355,0,0,0,.5.372,1.606,1.606,0,0,0,.467.188c3.245.515,5.33,2.7,7.268,5.078,1.219,1.5,1.084,2.857-.591,3.8a9.612,9.612,0,0,1-3.677,1.149c-2.552.25-5.144.11-7.689.386a39.606,39.606,0,0,0-5.873,1.265c-1.16.308-1.311,1.192-.778,2.191s1.154,1.964,1.642,2.987c.793,1.671.57,3.107-.958,4.127a24.549,24.549,0,0,1-4.408,2.07,15.287,15.287,0,0,1-2.38.536,7.883,7.883,0,0,0,.914,2,51.835,51.835,0,0,0,6.039,6.37c2.244,1.791,4.991,2.94,7.47,4.45,2.3,1.4,4.621,2.794,5.917,5.333.951,1.867.952,3.384.051,4.286a3.983,3.983,0,0,1-2.949.9,56.588,56.588,0,0,1-8.838-1.132c-2.02-.354-3.969-1.123-5.989-1.48-2.309-.408-2.654-.045-2.954,2.268-.022.167-.061.329-.092.5-.442,2.486-1.653,3.231-3.907,2.047a60.748,60.748,0,0,1-5.323-3.551c-.9-.6-1.828-1.177-2.744-1.764l-.346.3c.026,1.329.058,2.657.077,3.985a9.028,9.028,0,0,1-1.347,5.422,2.118,2.118,0,0,1-1.706,1.063A1.951,1.951,0,0,1,920.863,525.513Zm79.3-8.029a6.755,6.755,0,0,1,.609-1.148c-.445-.8-.421-1.142.234-1.16.846-.023,2.152,1.151,1.945,1.953a1.992,1.992,0,0,1-.518.827,1.339,1.339,0,0,1-.706.418.615.615,0,0,1-.07,0C1001.182,518.378,1000.622,517.847,1000.166,517.484Zm-3.409-7.616a10.23,10.23,0,0,1,1.706-.913c.117.469.478,1.154.3,1.359-.017.019-.034.038-.052.056a7.724,7.724,0,0,1-1.812.938C996.809,510.55,996.609,509.985,996.757,509.868Zm9.761.69c.261-.331.514-.671.788-.995a1.723,1.723,0,0,1,.231-.215c.148-.123.294-.243.3-.369,0-.22-.265-.483-.473-.659a2.461,2.461,0,0,0-.652-.286l-.049-.473a3.4,3.4,0,0,1,1.269-.191c.815.2,1.625.748,1.409,1.645a4.19,4.19,0,0,1-1.174,1.831q-.105.1-.211.2a.154.154,0,0,1-.108.033A7.31,7.31,0,0,1,1006.519,510.558Zm-42.13-41.241.133-.37a6.95,6.95,0,0,1,1.661.337,82.029,82.029,0,0,1,8.347,4.133,107.717,107.717,0,0,1,19.077,15.8,54.289,54.289,0,0,1,9.832,12.418c.293.55.523,1.134.784,1.7C993.281,489.2,980.874,476.9,964.389,469.318Zm12.243,15.971c3.586.7,14.5,12.774,15.2,16.646C987.323,495.892,982.608,490.019,976.631,485.289ZM665.126,501.2c-1.858-.144-3.7-.5-5.545-.751l-.049.229c-4.062-.815-8.13-1.607-12.184-2.447-4.3-.887-6.116-2.824-6.56-6.886-.39-3.6,1.325-7.279,4.812-8.4,6.006-1.94,12.176-3.382,18.311-4.89a10.162,10.162,0,0,1,3.791.139c5.235.785,9.778,5.585,9.643,10.84-.012.473-.038.937-.076,1.388-.581,6.635-4.134,10.834-10.827,10.834Q665.8,501.256,665.126,501.2Zm-1.814-19.128c-3,.265-5.919,1.323-8.883,2-1.727.4-3.458.793-5.2,1.067a5.747,5.747,0,0,0-5.1,4.872v.006c-.235,2.761,1.081,4.487,4.166,5.42a35.614,35.614,0,0,0,4.147,1.185c3.334.578,6.7,1.019,9.449,1.426,1.448.127,2.293.2,3.139.275,4.337.376,7.038-.866,8.056-3.7,1.724-4.793.647-9.427-3.2-11.421a12.107,12.107,0,0,0-5.4-1.184C664.084,482.026,663.692,482.043,663.312,482.077Zm324.827-8.067.306-.49a5.269,5.269,0,0,1,1.794.641q3.532,3.132,6.926,6.408A52.193,52.193,0,0,1,1008.8,496.31c.539,1.176.9,2.435,1.338,3.658l-.39.2C1004.444,489.885,996.611,481.685,988.139,474.01Zm-16.375,23.661c-.539-.609-.878-1.333-.1-2.119.667.5,1.191,1.781,2.154.5.759-1.008-.085-1.476-1.024-2.055a1.565,1.565,0,0,1,2.259.8,2.084,2.084,0,0,1-.5,2.479,3.218,3.218,0,0,1-.426.356,2.461,2.461,0,0,1-1.341.548A1.331,1.331,0,0,1,971.764,497.671Zm-20.694-.981c-.634-.2-.737-.844-.227-1.424.3-.337.575-.692,1.09-1.318.212.15.85.365.994.76a2.025,2.025,0,0,1-.087,1.737v0a1.678,1.678,0,0,1-1.118.332A2.2,2.2,0,0,1,951.07,496.69Zm13.028-3.483a5.876,5.876,0,0,1,.674-.567,7.83,7.83,0,0,1,.941-.43l-1.152-1.292.173-.318a9.642,9.642,0,0,1,1.858,1.062,1.226,1.226,0,0,1,.031,1.209l0,0a4.074,4.074,0,0,1-1.664.9.154.154,0,0,1-.046.006C964.7,493.781,964.369,493.4,964.1,493.207Zm-42.2-.655a3.924,3.924,0,0,1-3.027-2.249l.279-.494c.654.271,1.334.492,1.957.822a2.161,2.161,0,0,0,3.081-.84.98.98,0,0,0-.253-1.509c-1.3-.959-1.2-1.569-.105-2.712a32.672,32.672,0,0,0,4.576-5.311,79.8,79.8,0,0,0,3.632-7.733,5.769,5.769,0,0,1,.849-1.069,4.3,4.3,0,0,1,.671,1.319,3.625,3.625,0,0,1-.293,1.589c-1.768,4.829-4.089,9.3-8.376,12.6a2.464,2.464,0,0,1,.544,3.568,5.963,5.963,0,0,1-.774.968,3.316,3.316,0,0,1-2.363,1.073A3.152,3.152,0,0,1,921.9,492.552ZM652.76,489.56c.2-.59.229-1.417.64-1.725,2.862-2.142,6.063-3.088,9.558-1.889a3.247,3.247,0,0,1,2.377,3.82c-.006.08-.015.161-.025.245-3.859-1.9-7.438-1.459-10.994.027a.467.467,0,0,1-.182.034A6.133,6.133,0,0,1,652.76,489.56Zm-366.353-9.1c-.314-1.834-.417-3.706-.618-5.56l-.233.008c-.2-4.139-.421-8.276-.595-12.417-.184-4.382,1.249-6.616,5.084-8.032,3.39-1.255,7.378-.488,9.322,2.618,3.346,5.352,6.242,10.986,9.2,16.572a10.212,10.212,0,0,1,.787,3.712,10.75,10.75,0,0,1,.006,1.97c-.4,4.613-3.682,9.013-8.177,10.022a19.271,19.271,0,0,1-4.193.5C291.458,489.848,287.5,486.87,286.407,480.457Zm5.73-23.089c-2.605.42-3.956,1.984-4.213,4.917-.013.145-.022.293-.03.445a35.411,35.411,0,0,0-.139,4.31c.252,3.377.639,6.745.915,9.512.229,1.435.36,2.272.494,3.109.695,4.3,2.558,6.617,5.554,6.916,5.071.5,9.305-1.668,10.3-5.888a12.539,12.539,0,0,0-.5-6.647c-.986-2.841-2.722-5.419-4.108-8.129-.806-1.574-1.608-3.159-2.3-4.786a5.911,5.911,0,0,0-5.229-3.819A4.639,4.639,0,0,0,292.137,457.368ZM953.339,489c-.5-.317-.445-1.015.266-1.057,1.183-.075,1.356-.727,1.25-1.678l.34-.273c.335.378,1.015.867.936,1.111a4.762,4.762,0,0,1-1.1,1.881c-.043.044-.088.085-.133.126a.866.866,0,0,1-.555.146A2.071,2.071,0,0,1,953.339,489Zm13.425-2.846a5.763,5.763,0,0,1-2.126-.74c-.114-.054-.087-.537-.009-.787.024-.076.45-.083.671-.029,1.7.412,1.785.342,1.481-1.4.929.509,1.441,1.236,1.153,1.9a2.256,2.256,0,0,1-.466.66,1.156,1.156,0,0,1-.695.4Zm-46.078-4.3,3.208-4.552c-.149-.352-.474-.751-.378-.951.483-1.018.045-1.849-.332-2.749-.431-1.036-.065-1.648,1.048-1.982.275-.08.555-.138,1.146-.283-.526-.435-.837-.7-1.157-.957-.753-.6-1.537-1.167-2.248-1.814a.956.956,0,0,1-.2-.876.868.868,0,0,1,.83-.218,33.783,33.783,0,0,1,4.194,3.14c.84.8.31,1.89-.861,2.149-.484.106-.99.128-1.453.183l.713,3.361c.885-.587,2.278-.938,1.429-2.639a.682.682,0,0,1,.249-.618,1.069,1.069,0,0,1,.792.133,2.195,2.195,0,0,1,.143,3.426l-.055.054c-1.453,1.372-2.875,2.777-4.3,4.174a2.932,2.932,0,0,1-2.219,1.057A3.943,3.943,0,0,1,920.687,481.852Zm-626.077-14.6c-.174-.228-.09-.646-.007-1.064a5.194,5.194,0,0,0,.09-.562,5.624,5.624,0,0,0,.631.007,1.925,1.925,0,0,1,1.2.2c2.773,2.254,4.469,5.124,4.158,8.807-.133,1.528-.795,2.949-3.371,3.272C298.211,473.706,296.917,470.341,294.61,467.254Zm670.758-3.08c1.874-1.037,8.588.911,9.735,2.687C971.717,466.213,968.395,465.719,965.368,464.174ZM1224.3,397.007c-2.383-7.5-.218-13.451,7.571-15.5,1.8-.473,3.657-.738,5.485-1.1l-.028-.232c4.1-.561,8.207-1.14,12.317-1.675,4.35-.564,6.7.668,8.445,4.365,1.545,3.268,1.13,7.308-1.8,9.515-5.04,3.8-10.4,7.176-15.706,10.61a10.2,10.2,0,0,1-3.631,1.107,10.771,10.771,0,0,1-1.961.178C1230.361,404.28,1225.692,401.4,1224.3,397.007Zm25.36-15.558a35.678,35.678,0,0,0-4.3.237c-3.343.545-6.664,1.225-9.4,1.741-1.41.354-2.233.556-3.056.763-4.221,1.066-6.368,3.125-6.405,6.135-.059,5.095,2.472,9.124,6.763,9.747a12.545,12.545,0,0,0,6.578-1.076c2.745-1.229,5.161-3.184,7.74-4.8,1.5-.94,3.008-1.877,4.568-2.708a5.747,5.747,0,0,0,3.225-6.279c-.646-2.56-2.322-3.768-5.265-3.768C1249.957,381.44,1249.808,381.443,1249.656,381.449Zm-14.3,10.7c4.269.532,7.508-1.051,10.382-3.619.212-.193.635-.146,1.06-.1a5.113,5.113,0,0,0,.567.04c0,.624.243,1.413-.045,1.841-2,2.959-4.714,4.9-8.411,4.91C1237.371,395.225,1235.9,394.691,1235.353,392.152ZM1853.3,376.007c-2.383-7.5-.218-13.451,7.571-15.5,1.8-.473,3.656-.738,5.485-1.1l-.029-.232c4.106-.561,8.208-1.141,12.318-1.675,4.35-.565,6.7.668,8.445,4.365,1.545,3.268,1.129,7.307-1.8,9.514-5.04,3.8-10.4,7.177-15.706,10.61a10.187,10.187,0,0,1-3.631,1.108,10.771,10.771,0,0,1-1.961.178C1859.361,383.28,1854.692,380.4,1853.3,376.007Zm25.36-15.559a35.894,35.894,0,0,0-4.306.238c-3.342.544-6.663,1.225-9.4,1.741-1.409.353-2.232.555-3.055.763-4.221,1.066-6.368,3.124-6.405,6.134-.059,5.1,2.472,9.125,6.763,9.748a12.544,12.544,0,0,0,6.578-1.076c2.745-1.229,5.161-3.184,7.74-4.8,1.5-.94,3.007-1.876,4.568-2.707a5.747,5.747,0,0,0,3.225-6.279c-.646-2.56-2.322-3.768-5.265-3.768C1878.957,360.44,1878.809,360.443,1878.656,360.448Zm-14.3,10.7c4.269.532,7.508-1.052,10.382-3.619.212-.193.635-.147,1.059-.1a4.955,4.955,0,0,0,.568.041c0,.624.243,1.412-.045,1.841-2,2.959-4.714,4.9-8.411,4.91C1866.371,374.225,1864.9,373.691,1864.353,371.152ZM99.267,366.58c-3.188-.418-6.393-.779-9.553-1.359-3.686-.678-7.36-1.465-10.994-2.386q-.193-.049-.381-.1v-3.451a5.33,5.33,0,0,0,.7.3A88.848,88.848,0,0,0,89.555,362.1c3.8.8,7.606,1.541,11.439,2.107a4.527,4.527,0,0,0,3.359-.7c.614-.563.7-2.15.436-3.136l-.005-.019c-.816-2.965-3.308-5.784-7.919-9.317a29.7,29.7,0,0,0-13.2-6.474,11.958,11.958,0,0,0-2.722-.343h0a7.026,7.026,0,0,0-2.6.455v-3.337a14.43,14.43,0,0,1,6.856.421,30.485,30.485,0,0,1,13.265,7.064,22.238,22.238,0,0,1,8.04,9.455c2.158,4.721.34,7.827-4.784,8.369a8.255,8.255,0,0,1-.859.042A12.012,12.012,0,0,1,99.267,366.58Zm.277-6.1a23.272,23.272,0,0,0-14.188-3.892,7.453,7.453,0,0,1-6.209-2.691,3.564,3.564,0,0,1-.68-1.293,3.381,3.381,0,0,1,1.172-3.314,3.235,3.235,0,0,1,4.032-.663c-.726.491-1.642.5-2.245.945a4.714,4.714,0,0,0-1.752,2.245c-.1.352,1.018,1.409,1.722,1.579,1.708.419,3.519.41,5.256.747,3.6.7,7.228,1.354,10.745,2.366a3.612,3.612,0,0,1,2.768,3.94c-.256.016-.417.054-.519.054A.163.163,0,0,1,99.545,360.48Zm33.953-5.932c-4.579-1.19-8.292-3.714-9.555-8.43-.035-.132-.068-.266-.1-.4-1.041-4.471,1.435-7.691,4.741-10.418a30.49,30.49,0,0,1,13.495-6.615,22.269,22.269,0,0,1,12.37-.983c5.093,1.016,6.544,4.31,3.983,8.779a10.45,10.45,0,0,1-1.492,1.948c-2.205,2.339-4.374,4.724-6.694,6.945-2.709,2.591-5.5,5.108-8.373,7.515a8.573,8.573,0,0,1-5.626,2.027A10.966,10.966,0,0,1,133.5,354.548Zm9.436-23.278a29.778,29.778,0,0,0-12.976,6.911c-3.44,2.988-4.136,6.22-1.922,9.343,2.687,3.792,8.119,5.5,11.379,3.2a89.209,89.209,0,0,0,8.206-7.044c2.867-2.613,5.705-5.262,8.411-8.041a4.536,4.536,0,0,0,1.4-3.131,1.1,1.1,0,0,0-.029-.146,4.027,4.027,0,0,0-2.276-2.047,10.457,10.457,0,0,0-3.708-.61A30.625,30.625,0,0,0,142.934,331.27Zm-11.377,13.54a5.786,5.786,0,0,1-.125-.6,3.231,3.231,0,0,1,1.821-3.657c-.028.877-.553,1.625-.548,2.371a4.709,4.709,0,0,0,.8,2.736c.226.289,1.739,0,2.287-.468,1.343-1.144,2.394-2.615,3.686-3.825,2.677-2.506,5.329-5.067,8.208-7.323a3.608,3.608,0,0,1,4.816.062c-.193.308-.24.488-.34.52a23.278,23.278,0,0,0-11.461,9.221,7.468,7.468,0,0,1-5.818,3.461c-.071,0-.14.005-.21.005A3.046,3.046,0,0,1,131.557,344.811Zm1845.2-38.016a21.332,21.332,0,0,1-2.6-3.826c-3.115-5.628-4.969-11.756-6.888-17.851-1.455-4.618-2.56-9.363-4.238-13.9-2.229-6.017-4.823-11.9-7.345-17.809-1.262-2.95-2.724-5.816-4.069-8.731-.385-.837-.706-1.861.2-2.444s1.492.426,2.152.914c1.328.984,2.677,1.939,4.117,2.978,1.138-4.791,5.082-4.937,8.652-5.829a24.773,24.773,0,0,0-4.55-1.3,25.042,25.042,0,0,1-9.453-3.484,20.247,20.247,0,0,1-9.353-12.894,19.558,19.558,0,0,1-.817-7.835,22.843,22.843,0,0,1,5.5-11.918c.419-.473.911-.881,1.368-1.317l.349.282c-.75,1.286-1.422,2.628-2.267,3.849-3.4,4.918-4.76,10.216-3.108,16.08a21.568,21.568,0,0,0,3.843,8.226,22.561,22.561,0,0,0,14.33,7.861,11.954,11.954,0,0,1,3.063.81c2.147.993,4.691,1.221,6.353,3.184.026.032.133,0,.191-.005l-.049-1.019.277-.139a10.609,10.609,0,0,1,1.215,1.712c1.081,2.41,2.235,4.8,3.089,7.3,2.543,7.424,5.1,14.847,7.385,22.354,2.651,8.721,5,17.534,7.521,26.3q1.2,4.163,2.63,8.257a39.878,39.878,0,0,0,4.086,8.137v2.252a41.182,41.182,0,0,1-5.663-11c-.654-2.1-1.338-4.186-1.973-6.29a5.178,5.178,0,0,0-1.681-3,21.28,21.28,0,0,1-3.752-4.471c-4.837-6.845-9.518-13.8-14.447-20.578a116.873,116.873,0,0,1-8.409-13.851c-2.061-3.857-4.705-7.4-7.094-11.08-.25-.386-.517-.761-.776-1.143l.283-.247c.657.627,1.339,1.231,1.97,1.884a42.466,42.466,0,0,1,7.725,11.79,65.317,65.317,0,0,0,6.872,11.219c2.858,3.857,5.537,7.845,8.3,11.774.274.389.581.753.874,1.129l.347-.113c-.285-1.313-.613-2.622-.847-3.945-.278-1.562-.214-3.244-.785-4.679-.55-1.377-1.84-2.438-2.6-3.757-1.715-2.99-3.307-6.053-4.941-9.09a.833.833,0,0,1,.02-.809l7.062,11.841.335-.064c-.4-2.407-.794-4.815-1.214-7.22a.934.934,0,0,0-.375-.457,67.068,67.068,0,0,1-10.832-10.693,8.769,8.769,0,0,0-5.308-3.451,3.079,3.079,0,0,1-2.281-2.013,5.488,5.488,0,0,0-1.287-2.013c-1.63-1.336-3.381-2.525-5.093-3.758a3.838,3.838,0,0,0-.873-.252,16.792,16.792,0,0,0,.726,2.326c2.917,5.953,5.873,11.885,8.8,17.831a21.105,21.105,0,0,1,1.6,3.557,7.526,7.526,0,0,0,3.37,4.253c1.973,1.359,3.781,2.959,5.648,4.471a.853.853,0,0,1,.236.679c-3.054-1.246-5.232-3.64-7.838-6.025.26.888.419,1.475.6,2.052s.41,1.152.583,1.737c1.286,4.29,2.542,8.59,3.87,12.866a2.69,2.69,0,0,0,1.082,1.493c5.339,2.866,9.468,7.128,13.519,11.5a3.749,3.749,0,0,0,1.193.73c1.582.732,3.188,1.417,4.765,2.162a5.45,5.45,0,0,1,.993.78l-.165.313c-.644-.258-1.276-.549-1.931-.77-2.07-.7-4.177-1.3-6.219-2.068-2.807-1.064-5.568-2.245-8.345-3.387-.364-.148-.7-.365-1.388-.734.525,1.229.905,2.142,1.3,3.047a26.554,26.554,0,0,0,5.038,7.739,1.924,1.924,0,0,0,1.624.782,10.673,10.673,0,0,1,2.957.67c3.054.841,6.106,1.689,9.149,2.568a18.317,18.317,0,0,1,1.919.79l-.221.435a40.752,40.752,0,0,1-13.927-4.126c1.246,3.065,10.292,9.913,17.492,13.885v1.758C1989.843,320.009,1982.969,313.835,1976.753,306.795Zm-4.478-12.244a1.134,1.134,0,0,0,.464.532,35.142,35.142,0,0,0,9.482,4.425c.225.055.461.066.791.11a44.231,44.231,0,0,0-12.829-10.947C1970.912,290.731,1971.58,292.647,1972.274,294.551Zm10.268-9.213a5.842,5.842,0,0,0,.849,1.739c1.8,2.6,3.636,5.185,5.464,7.769a8.859,8.859,0,0,0,.637.677c-.427-1.536-.751-2.725-1.088-3.911q-3.27-11.556-6.549-23.107c-.36-1.264-.633-2.672-2.56-2.69C1980.076,272.423,1980.807,278.963,1982.543,285.338Zm-1.6-19.9c-2.717-7.626-5.343-15-7.968-22.368l-.387.031c.043,2.156-1.366,3.538-2.544,5.035-1.216,1.544-2.4,3.163-5.058,3.167,4.117,4.053,7.95,7.825,11.782,11.6l.256-.165-.479-2.2C1978.516,261.738,1978.11,264.7,1980.944,265.441Zm-19.1-21.8a3.6,3.6,0,0,0-2,3.009,1.5,1.5,0,0,0,.122.824,4.6,4.6,0,0,0,7.92.832c1.187-1.6,2.316-3.235,3.636-5.083a12.354,12.354,0,0,0-2.093-.767,11.9,11.9,0,0,0-1.909-.155A13.362,13.362,0,0,0,1961.844,243.643ZM87.062,317.633c-2.947-1.027-5.831-2.24-8.723-3.419v-3.122a86.059,86.059,0,0,0,14.909,5.415c2.677.769,5.587,1.654,8.26,1.346,9.8-1.126,18.6-5.094,26.9-10.363,4.058-2.576,8.477-4.585,12.734-6.849l.451.883c-10.038,6.783-19.933,13.83-31.856,17.428a69.363,69.363,0,0,0,11.826.175c13.843-1.411,26.518-6.375,38.137-13.833a98.66,98.66,0,0,0,14.694-11.612A93.379,93.379,0,0,0,196.87,260.11c2.728-6.91,4.941-14.042,7.088-21.163.688-2.281.415-4.85.58-7.29l-.833-.168-5.483,13.768-.831-.33c1.535-3.855,2.885-7.79,4.646-11.537,2.891-6.164,3.377-12.591,2.768-19.226-.285-3.115-.493-6.239-.691-9.364a40.716,40.716,0,0,0-4.445-15.585c-2.147-4.318-4.875-8.348-7.371-12.491a165.3,165.3,0,0,0-19.034-25.069c-4.389-4.883-4.925-10.892-1.463-16.436a23.855,23.855,0,0,1,8.883-8.909c3.744-2,7.4-4.156,11.167-6.116s7.63-3.744,11.436-5.636c2.573-1.278,4.039-3.52,5.422-6.251a13.781,13.781,0,0,0-2.019.415,31.06,31.06,0,0,1-11.387,1.846,15.51,15.51,0,0,0-11.641,5.377,20.64,20.64,0,0,1-2.229,1.852l-.623-.422a13.26,13.26,0,0,1,.9-2.754c1.813-3.079,4.854-4.587,8.053-5.671a4.994,4.994,0,0,0,3.111-2.9c1.577-3.292,3.26-6.534,4.86-9.814.49-1.006.84-2.076,1.365-3.394-4.09,1.071-7.741,1.859-11.277,3.011a28.6,28.6,0,0,0-7.459,3.351c-2.683,1.856-4.921,4.351-7.413,6.629a11.132,11.132,0,0,1,.345-6.92c3.144-7.69,1-14.865-2.122-22.61-3.134,4.276-6.145,8.228-8.968,12.309a18.114,18.114,0,0,0-3.088,5.891c-.831,3.669-.9,7.5-1.5,11.232-1.219,7.589-3.415,14.665-8.827,20.617-4.435,4.88-8.643,5.529-15.051,2.791-3.491-1.49-6.839-3.335-10.385-4.666-5.09-1.9-10.346-3.364-15.453-5.23-10.306-3.769-20.157-4.045-29.564-.749v-2.671c9.048-2.692,18.342-1.988,27.565.776q11.131,3.339,22.195,6.9c2.547.824,4.945,2.092,7.472,2.994,4.075,1.457,7.52,1.22,10.846-2.408,5.035-5.489,6.622-12.137,8.176-19.012,1.34-5.924,2.333-12.156,5-17.5,2.631-5.279,7.034-9.714,10.917-14.3,1.654-1.959,3.6-1.11,4.126,1.418a34,34,0,0,0,1.58,6.5c2.274,5.285,2.293,10.553.678,16.179,5.674-4.8,12.935-4.88,19.4-7.154,1.09-.386,2-1.252,3.075-1.735.753-.338,1.816-.782,2.394-.493a2.508,2.508,0,0,1,1.067,2.18,54.807,54.807,0,0,1-2.8,8.166c-1.411,3.1-3.2,6.035-5.019,9.4a18.851,18.851,0,0,0,3.7.078c4.993-.931,10.256-1.21,13.957-5.493.837-.974,2.122-1.976,3.186-.672.448.549-.019,2.164-.49,3.076-1.2,2.309-2.628,4.5-3.974,6.728a15.682,15.682,0,0,1-6.726,6.362c-3.773,1.785-7.6,3.469-11.323,5.353-4.648,2.353-9.506,4.448-13.736,7.42-4.377,3.076-7.881,7.29-6.976,13.282a11.463,11.463,0,0,0,2.551,5.519c7.1,8.163,14.025,16.449,19.728,25.679,2.66,4.3,5.717,8.439,7.777,13.019a60.907,60.907,0,0,1,4.675,14.844c1.81,10.992,1.512,22.145.863,33.234a45.329,45.329,0,0,1-2.252,11.349c-4.159,12.649-9.249,24.943-17.257,35.7-6.505,8.743-13.863,16.644-23.064,22.85-9.7,6.547-19.92,11.81-31.279,14.45a81.646,81.646,0,0,1-18.561,2.147A87.076,87.076,0,0,1,87.062,317.633Zm1905.25-20.8c-3.012-7.809-4.951-15.932-6.986-24.025-2.5-9.95-4.967-19.918-9.139-29.344a33.849,33.849,0,0,0-1.955-3.01,3.093,3.093,0,0,1-.636-1.85,6.547,6.547,0,0,1,1.3-2.809c1.76-2.026,3.782-3.824,5.524-5.864,1.789-2.092,3.822-4.154,4.96-6.594,3.756-8.054,1.633-15.07-4.235-21.5a13.112,13.112,0,0,0-4.4-3.153c-2.263-.964-4.793-1.291-7.108-2.157a20.826,20.826,0,0,1-4.53-2.553,4.247,4.247,0,0,1-1.373-2.088,9.955,9.955,0,0,1-.057-6.013c.6-2.021,1.2-4.042,1.822-6.131l-.657.381-.218-.17c1.619-3.3,3.241-6.6,4.953-10.089-2.948,2.366-4.714,5.5-7.011,8.177,1.517-4.163,4.578-7.16,7.673-10.137-2.863,1.048-4.821,3.282-6.934,5.311l-.292-.29,3.829-4.473c-4.395,2.872-6.74,7.025-8.571,11.591-.2-2.076.658-3.806,1.757-5.848l-2.955,1.558.369,2.958a44,44,0,0,1-5.237-12.235l-.542.158,2.3,10.557-.619.14-2.471-8.9-.185,0q.165,5.55.331,11.1l-.374.014c-1.085-2.962-1.106-6.091-1.5-9.2l-.663,7.8-.209,0-.413-3.445a1.66,1.66,0,0,0-.464,1.046c.014,1.335.1,2.669.115,4a3.017,3.017,0,0,1-.3.922,4.547,4.547,0,0,1-.8-.618,1.389,1.389,0,0,1-.205-.695c-.157-1.315-.3-2.632-.461-4.046l-2.7-1.379-.121.218,2.156,1.8-.174.275-5-2.364c1.893,2.012,4.279,3.416,5.744,5.808-2.494-1.678-5.306-2.072-8.15-2.373a9.493,9.493,0,0,0-7.781,2.46l2.611-.751a30.52,30.52,0,0,1-2.859,2.092c-.957.68-2.07,1.24-2.5,2.619,3.738-2.734,6.185-3.4,8.816-2.408-2.416.391-4.828.642-6.71,2.388,1.589-.091,3.151-.285,4.709-.506a7.351,7.351,0,0,1,5.3.95,16.835,16.835,0,0,1,5.945,6.024c1.2,2.31,2.4,4.62,3.537,6.962a8.717,8.717,0,0,1,.711,2.445c.06.389-.256.833-.4,1.252-.3-.291-.7-.53-.869-.881-1.391-2.889-2.675-5.832-4.127-8.689a32.278,32.278,0,0,0-2.426-3.562,4.574,4.574,0,0,1-4.193.28c-1.182-.381-1.667.2-2.561.982,2.35-.041,4.493-.617,6.642.521-2.771.372-5.341.728-7.916,1.043a.818.818,0,0,1-.7-.315,1.01,1.01,0,0,1,.143-.872,16.166,16.166,0,0,1,2.41-2.213,27.151,27.151,0,0,1,3.193-1.616,5.259,5.259,0,0,0-4.531-1.072c-2.065.578-4.045,1.449-6.08,2.147a6.118,6.118,0,0,1-2,.376,1.138,1.138,0,0,1-.781-.791,9.273,9.273,0,0,1,5.854-9.256,39.787,39.787,0,0,1,6.245-1.421c-.508-.876-1.046-1.774-1.552-2.688-.633-1.139-.314-1.763.98-1.64,3.44.329,6.739,1.137,9.495,3.311,1.35-3.392,2.714-6.817,4.078-10.242a2.629,2.629,0,0,1,.351-.77c.249-.289.6-.711.88-.689s.665.463.786.8c.758,2.105,1.454,4.232,2.178,6.35.077.229.194.445.37.837.271-.734.455-1.269.663-1.8.606-1.536,1.374-1.746,2.48-.484,1.156,1.32,2.128,2.8,3.208,4.243.287-.342.7-.785,1.06-1.267a13.666,13.666,0,0,1,8.321-4.947c1-.227,2.088-.391,2.858.542-1.9,3.876-3.755,7.666-5.488,11.208,1.7.88,3.481,1.75,5.2,2.722.387.218.574.787.855,1.194-.449.287-.872.742-1.354.819a9.026,9.026,0,0,1-2.176-.1c-3.537-.333-5.384,1.154-5.7,4.651-.069.766,0,1.543,0,2.313a4.241,4.241,0,0,0,2.228,3.947,24.536,24.536,0,0,0,4.09,1.847c2.949.977,5.894,1.79,8.507,3.688,6.325,4.6,9.919,10.468,9.279,18.467-.448,5.6-3.452,9.884-7.344,13.683-1.659,1.62-3.217,3.346-4.748,5.089a8.292,8.292,0,0,0-.943,1.851c.373.053.479-.011.559-.1a2.319,2.319,0,0,0,.374-.481,9,9,0,0,1,5.694-4.512c5.2-1.657,7.141-1.533,10.023,1.895,2.229,2.653,1.972,5.653-.108,7.516a8.113,8.113,0,0,1-8.416,1.829c-1.418-.51-2.809-1.1-4.246-1.544-1.081-.335-2.218-.491-3.559-.777.255.53.342.757.464.961,4.14,6.842,6.39,14.4,8.366,22.063a4.4,4.4,0,0,0,1.82,3.028c3.239,2.226,6.2,4.865,9.235,7.379a19.863,19.863,0,0,1,2.4,2.382v2.728q-.159-.189-.321-.377c-3.505-4.06-7.72-7.505-11.621-11.225l-.4.3c3.1,12.668,6.049,25.387,12.343,37.165v3.068A106.656,106.656,0,0,1,1992.312,296.835Zm-9.881-61.591a7.815,7.815,0,0,0-4.167,3.415,14.4,14.4,0,0,1-1.908,2.215c1.822.539,3.643,1.062,5.454,1.62a9.8,9.8,0,0,1,2.053.778c2.777,1.607,5.245.493,7.547-.967,1.871-1.189,1.618-4.256-.087-6.053a5.959,5.959,0,0,0-4.5-2.047A12.228,12.228,0,0,0,1982.431,235.245Zm-45.464-47.832,3.509-.023c-.332-.528-.542-.795-1-.795A8.661,8.661,0,0,0,1936.967,187.412Zm-10.886-1.026.21.37,2.55-1.51-.152-.276C1927.852,185.5,1926.448,184.993,1926.081,186.386Zm41.689-6.584a1.216,1.216,0,0,0-1.333.968c-.186.756-.455,1.493-.689,2.239a7.125,7.125,0,0,1,5.92-1.185,6.572,6.572,0,0,0-3.849-2.023Zm-27.288-3.91-2.547-1.8C1938.494,176.01,1938.577,176.065,1940.482,175.892Zm16.223-1,3.083-1.813L1956.975,169A5.833,5.833,0,0,0,1956.7,174.888ZM94.265,305.342c1.732-.337,3.452-.746,5.2-1.005,3.389-.5,6.783-1.139,10.2-1.334,8.675-.493,16.031-4.1,23.035-8.928,9.107-6.275,18.166-12.666,25.553-20.916a100.18,100.18,0,0,0,12.118-16.793,161.6,161.6,0,0,0,10.084-21.4c1.83-4.656,2.429-9.8,3.587-14.717.221-.937.477-1.868.717-2.8,1.054,6.1-.415,11.806-2.339,17.305a118.5,118.5,0,0,1-20.465,36.979c-7.329,8.818-16.446,15.767-25.939,22.153-2.968,2-6.1,3.74-9.152,5.606-6.605,4.026-14.132,4.48-21.506,5.463-3.647.484-7.326.766-10.989,1.139ZM78.34,297.147v-2.281c5.6,2.3,11.576,2.369,17.586,1.658,2.294-.27,4.594-.535,6.9-.643,6.975-.328,13.155-2.787,19.005-6.505,4.139-2.631,8.817-4.464,12.785-7.309a122.333,122.333,0,0,0,15.275-12.657c2.926-2.926,4.818-6.943,6.936-10.606,4.434-7.68,8.964-15.323,12.948-23.236,1.84-3.656,2.732-7.858,3.624-11.906,2.491-11.287,3.387-22.8,4.743-34.26,1.057-8.974-2.191-15.943-7.518-22.292-3.28-3.906-7.339-7.157-11.06-10.69-.756-.716-1.6-1.346-2.339-2.079-4.636-4.572-5.369-8.393-2.819-14.376q3.378-7.918,6.725-15.845c.147-.344.205-.788.461-1.006a15.154,15.154,0,0,1,1.71-1.142c.2.636.7,1.356.552,1.892-1.174,4.153-2.378,8.3-3.78,12.38a60.108,60.108,0,0,1-2.768,5.859c-1.2,2.551-1.265,5.074.484,7.4a54.026,54.026,0,0,0,3.987,4.782c3.643,3.829,7.753,7.281,10.966,11.434,5.324,6.88,9,14.336,7.563,23.71-1.548,10.074-2.462,20.264-3.154,30.438a57.292,57.292,0,0,1-8.166,25.731c-3.984,6.735-7.757,13.6-11.7,20.358-4.882,8.37-12.322,14.074-20.4,18.993-5.275,3.208-10.648,6.314-16.188,9.025-4.945,2.417-10.13,4.367-15.813,4.425-3.05.03-6.113.228-9.146.545a44.328,44.328,0,0,1-4.615.245A40.535,40.535,0,0,1,78.34,297.147Zm1919.906-13.993a5.216,5.216,0,0,1,.094.566v2.649c-.317,4.2-1.834,10.177-3.267,11.3ZM80.557,288.374a5.328,5.328,0,0,1-1.359-5.564,6.913,6.913,0,0,1,4.221-5.143c.311-.12.785.176,1.184.283a7.809,7.809,0,0,1-.565,1.285c-.749,1.141-1.959,2.147-2.254,3.383-.74,3.092.6,4.555,5.23,6.016-2.923-2.414-3.595-5.042-1.921-6.989.447-.519,1.34-.655,2.024-.967.023.609.006,1.226.081,1.83.111.886.286,1.765.436,2.647.8-.185,1.606-.364,2.407-.558,1.395-.34,2.8-.681,4.185-1.051.7-.185,1.385-.409,2.064-.655.581-.211,1.139-.477,1.706-.717a11.293,11.293,0,0,1,.445,2.038,2.825,2.825,0,0,1-.512,1.213,11.99,11.99,0,0,1-10.151,5.936A10.316,10.316,0,0,1,80.557,288.374Zm1856.7-3.857c-.414-2.605-.528-5.258-.8-8.107.312-2.437.834-3.992,3.784-6.757a3.554,3.554,0,0,1,4.159-.733,5.842,5.842,0,0,1,3.015,3.05,9.276,9.276,0,0,1,.384,6.068c-.724,3.5-2.212,6.592-5.26,8.63a4.368,4.368,0,0,1-2.389.827C1938.7,287.5,1937.565,286.435,1937.261,284.517Zm4.574-14.284a7.541,7.541,0,0,0-3.507,7.94c.327,1.712.412,3.468.7,5.187.122.725.365,1.9.768,2a3,3,0,0,0,2.316-.6,11.356,11.356,0,0,0,4.069-7.266c.128-.925.172-1.861.256-2.794.015-2.5-1.083-4.216-3.092-4.63a2.7,2.7,0,0,0-.536-.052A2.026,2.026,0,0,0,1941.835,270.233Zm-1837.341,15.1c-1.81-.532-3.383-2.05-4.9-3.319-.4-.334-.162-1.421-.22-2.164a15.578,15.578,0,0,1,1.93.516c1.749.72,3.425,1.973,5.22,2.161,3.9.412,6.456-3.024,6.609-7.122.013-.386-.614-.918-1.065-1.174a37.4,37.4,0,0,1-3.556-1.836,23.766,23.766,0,0,1-2.822-2.875c-2.021,5-3.91,10.606-10.434,10.508-4.325-.061-8.49-1.882-10.009-7.021-.678.351-1.353.747-2.063,1.058a8.382,8.382,0,0,1-4.849.61v-2.49a6.532,6.532,0,0,0,5.566-1.686c4.182-3.55,2.1-7.361.432-11.17,2.03.009,3,.633,3.841,2.673.418,1.019.512,2.164.843,3.221.276.867.685,1.691,1.278,3.118-.308.671-.973,1.992-1.508,3.361a3.048,3.048,0,0,0-.23,1.908c1.051,2.975,7.722,4.542,9.778,2.177a21.371,21.371,0,0,0,3.748-5.937c1.019-2.557.065-3.793-2.606-4.484a20.64,20.64,0,0,1-3.41-1.048c-3.786-1.736-4.967-4.079-4.2-7.864a28.4,28.4,0,0,1-4.782.049,8.034,8.034,0,0,1-6.772-6.817c-.324-1.851-.848-2.92-1.977-3.571v-2.248q1.131.353,2.4.82c1.589-2.731,3.105-5.616,6.655-6.294-3.375-7.235-2.563-10.613,3.263-14.052-1.694-3.572-1.334-7.786.867-10.119,2.767-2.933,6.6-3.069,10.485-.059,3.011,2.335,5.286,5.243,5.476,9.33.1,2.288,2.2,2.174,3.617,2.6a3.19,3.19,0,0,0,3.907-1.826c.831-1.58-.153-2.5-1.217-3.41a10.821,10.821,0,0,1-2.527-2.936l1.858-.26-1.81-5.33c-2.563.6-5.23,1.255-7.92,1.8-.213.046-.587-.678-.771-.9l9.434-4.981-6.625-7.186c-7.572-.481-9.411-3.368-6.985-12.082-3.254-.617-6.586.919-7.572,3.582-.792,2.145-.944,4.451.908,6.006,1.609,1.346,3.692,2.125,6.219,3.52l-2.667.752-.811,4.4c-2.248-1.006-2.437-2.109-.889-4.361-.457-.218-.889-.438-1.333-.633-.468-.2-.948-.38-1.4-.562-1.233,2.141-1.233,2.141,1.138,4.967l-1.035.85c1.908,3.86,1.278,6.167-2.092,7.329a8.6,8.6,0,0,1,.237-.873c.62-1.628,1.292-3.283-.2-4.788-1.547-1.558-5-2.035-7.163-1.032a4.841,4.841,0,0,0-2.84,4.692,2.989,2.989,0,0,0,1.356,1.959,7.971,7.971,0,0,1,3.161,8.312c-.854-1.47-1.6-2.684-2.278-3.939a5.015,5.015,0,0,0-2.844-2.777v-8.684a6.646,6.646,0,0,1,1.637-1.484L78.34,204.39v-4.215a11.683,11.683,0,0,0,9.618,5.2c-1.694-2.582,2.479-5.093-.357-7.808-.168.243-.33.486-.5.723-1.821,2.625-3.92,3.257-5.713,1.726-1.766-1.506-1.558-4.231.509-6.3a4.39,4.39,0,0,1,1.573-1.2,6.094,6.094,0,0,1,2.015.039,9.039,9.039,0,0,1-.7,1.759c-.668,1.005-1.453,1.937-2.19,2.9l.62.577a20.628,20.628,0,0,0,3.423-2.086,4.027,4.027,0,0,0,1.155-2.471c.058-.617-.574-1.843-.973-1.872-1.2-.1-2.5-.3-3.728-.3a6.032,6.032,0,0,0-2.5.444,5.1,5.1,0,0,0-2.256,2.046v-6.423a27.607,27.607,0,0,0,3.036.887c2.8.613,2.676-2.749,4.982-4.059l.529,4.413c2.462,1.436,2.462,1.436,5.136-1.12-2.741-3.465-2.832-3.773-2.333-7.167C87.1,181.357,84.4,183.395,81.4,184a5.041,5.041,0,0,1-3.058-.264V180.19c1.41,1.339,3.467,1.28,5.621-.095,3.387-2.164,5.33-5.551,7.52-8.741,1.242-1.807,1.207-3.144-.828-3.958-2.212-.886-4.743-.989-7.39-1.48l-3.533-2.579-.049,3.189,2.261.234c-.473.856-.811,1.482-1.167,2.1-.79,1.357-1.658,2.678-2.435,4.04V155.509c.056.519.076,1.055.145,1.587,2.436-1.739,4.98-3.556,8.1-5.778-1.1-1.453-2.378-3.332-3.857-5.035a1.933,1.933,0,0,0-1.479-.757,2.948,2.948,0,0,0-1.863.86,6.791,6.791,0,0,0-1.043,1.137v-3.65q.138-.1.281-.194a4.125,4.125,0,0,1,5.019.106,12.067,12.067,0,0,1,4.838,7.274,12.323,12.323,0,0,0,1,2.09,8.546,8.546,0,0,0,1.436-6.664c-.544-3.079,1.171-5.418,3.956-6.865.791-.412,1.6-.792,2.53-1.256-1.148-2.684-2.572-5.613-.645-8.241,1.654-2.255,4.075-3.951,6.226-5.963l-7.271-1.908.006-.626a11.343,11.343,0,0,1,3.076-.121c4.413,1.051,8.857,2.038,13.162,3.446,4.669,1.527,9.179,3.529,13.786,5.262,3.484,1.31,6.968,2.644,10.521,3.74,3.946,1.219,7.826.275,11.641-.86a2.9,2.9,0,0,0,1.262-.883c2.426-2.822,4.864-5.639,7.2-8.533a16.118,16.118,0,0,0,3.348-9.769,18.978,18.978,0,0,1,3.523-10.66c2.092-2.865,4.049-2.541,5.674.594,1.059,2.038,2.44,3.91,3.695,5.848a12.149,12.149,0,0,1,1.473-1.125,2.989,2.989,0,0,1,4.211.633c1.077,1.353-.11,2.307-.989,3.228-.461.483-.918.98-1.337,1.5-2.07,2.586-2.093,2.683.431,4.733,1.557,1.263,1.742,2.553.305,3.932a19.641,19.641,0,0,1-2.952,2.359c-2.333,1.492-4.73,2.884-7.057,4.289-.778-2.138-.285-3.423,2.05-4.5,1.69-.779,3.449-1.415,5.12-2.236a16.894,16.894,0,0,0,2.342-1.7c-1.294-1.914-4.392-2.624-3.03-5.4-1.2-.27-2.65-.188-3.415-.877a8.126,8.126,0,0,1-1.736-3.484c-.8-2.44-1.456-4.932-2.173-7.4l-.662-.123c-.72.974-1.745,1.849-2.1,2.946a39.92,39.92,0,0,0-1.8,7.54,21.784,21.784,0,0,1-3.309,10.057c-2.044,3.007-3.763,6.239-5.833,9.233a6.977,6.977,0,0,1-3.206,2.592c-5.346,1.8-10.771,2.307-16.167.04q-10.2-4.293-20.425-8.549c-.753-.315-1.629-.922-2.291-.76-3.41.837-7.313.123-9.958,3.452-2.089,2.631-1.363,6.916,1.979,9.077,2.758,1.785,4.487,3.991,3.543,7.417-.212.766-1.071,1.356-1.632,2.024-.264-.766-.535-1.531-.792-2.3-.428-1.274-.574-2.767-1.356-3.766-.633-.8-2.358-1.67-3-1.343-1.009.516-1.548,2-2.21,3.114a.959.959,0,0,0,.2.912c1.363.643,1.178,1.674.224,2.181-.681.363-1.81-.03-2.713-.214-.247-.052-.4-.572-.716-1.081-.36,1.568-.147,2.229,1.521,2.531,3.339.607,6.236,4.134,5.765,6.962a17.4,17.4,0,0,1-1.724,4l3.59-.679c-1.811-5.328-.837-7.122,4.6-8.984.158-2.346-.117-4.637.558-6.6.808-2.34,3.247-2.515,5.846-2.265.409-3.8.8-7.43,1.187-11.043a5.045,5.045,0,0,1,2.242,4.055c.081,1.7-.1,3.419-.1,5.126,0,2.226-.045,4.455.136,6.667A12.474,12.474,0,0,1,115.567,154c-2.557,3.991-4.971,8.068-7.485,12.176.529-.123,1.149-.23,1.749-.406a42.006,42.006,0,0,1,15.511-1.356,20.247,20.247,0,0,0,9.4-1.3c5.492-2.142,10.531-1.029,15.177,2.384,2.274,1.671,2.543,3.514.707,5.691a9.667,9.667,0,0,1-2.5,2.19c-3.49,1.989-7.138,3.715-10.553,5.82a61.713,61.713,0,0,0-6.119,4.815c-1.064.859-2.109,1.749-3.164,2.621l-.691-.411,1.065-3.994a4.716,4.716,0,0,0-5.136.457c-2.78,2.252-2.7,5.24-1.644,8.355-3.264-.137-4.033-2.076-3.008-7.248l-4.088-.834c-1.366,2.787-3.812,3.339-6.845,3.248a7.724,7.724,0,0,0-7.728,9.49c.386,1.658,1.431,2.644,2.911,2.55a6.847,6.847,0,0,0,3.851-1.492c1.3-1.146,2.083-2.862,3.231-4.215,2.855-3.361,8.574-2.186,10.466,2.5-1.191-.6-2.05-1.11-2.968-1.48a5.127,5.127,0,0,0-2.3-.581c-3.348.406-4.107,1.5-3.293,4.757.681,2.728,1.535,5.412,2.492,8.737,2.956-3.4,6.053-6.349,8.422-9.8,4.143-6.041,9.405-10.959,14.8-15.761a16.5,16.5,0,0,1,5.477-2.9c4.246-1.5,7.87-3.53,10.515-7.456,2.131-3.163,5.752-4.6,9.405-5.606a7.245,7.245,0,0,1,2.567-.536,8.289,8.289,0,0,1,2.374,1.1c-.623.383-1.239,1.08-1.868,1.09-5.538.111-9.584,2.605-12.51,7.255-1.778,2.825-4.63,4.361-7.644,5.576-1.162.468-2.343.879-3.352,1.253l5.093,4.493c1.435-1.563,3.531-3.415,6.3-2.686a17.444,17.444,0,0,1,5.772,3.069c1.421,1.067,2.739,2.631,1.051,4.85-1.6-1.531-2.984-3.063-4.577-4.328-2.216-1.759-4.448-1.382-6.34.669-1.12,1.217-1.191,2.287-.113,3.52.669.766,1.252,1.606,1.94,2.5a4.512,4.512,0,0,1-5.474-3.928,5.619,5.619,0,0,0-3.89-4.571c-2.112-.552-3.338.635-4.464,2.173-1.9,2.586-2.42,4.643-1.716,7.167a25.733,25.733,0,0,1,4.367.581c2.164.665,5.321,5.418,5.3,7.692a4.64,4.64,0,0,1-2.965,4.581c-2.436,1.016-6.6.03-8.533-1.959-2.018-2.08-2.316-4.48-.983-7.618a2.912,2.912,0,0,0,.351-1.454c-.341-2.08-.786-4.14-1.259-6.54-2.353,2.874-4.766,5.827-7.437,9.094,3.465.386,5.9,1.732,6.564,4.886a10.436,10.436,0,0,1-2.511,9.366,14.441,14.441,0,0,1-2.32,1.668,4.425,4.425,0,0,0-1.272,1.4c4.763-1.5,9.224-2.365,13.185,1.933,1.645-1.425,3.086-2.881,3.381-5.246.435-3.481,1.47-6.489,5.534-7.5,1.048-.263,1.914-1.768,2.6-2.867a29.329,29.329,0,0,0,1.726-3.877,8.82,8.82,0,0,1,6.006-5.519,37.87,37.87,0,0,0,5.677-2.566c-3.083-5.12-2.638-9.257,1.232-12.851a5.832,5.832,0,0,1,6.175-1.476c2.465.811,3.435,2.715,3.754,5.077a7.953,7.953,0,0,1-4.793,8.014c-.869.357-1.4,1.454-2.245,1.96-2.985,1.794-6.08,3.413-9.042,5.245a10.743,10.743,0,0,0-3.332,2.933,47.962,47.962,0,0,0-2.729,5.626,5.739,5.739,0,0,1-4.779,3.582,3.141,3.141,0,0,0-2.975,2.566,23.63,23.63,0,0,1-5.376,9.152,5.631,5.631,0,0,0-.925,4.263,21.328,21.328,0,0,1-.363,9.282c-1.142,4.766.233,7.5,4.606,9.607,3.693,1.775,4.28,3.527,2.385,7.1-.1.2-.212.4-.311.594-1.837,3.669-1.561,4.425,2.216,6.064,3.757,1.625,4.87,3.52,3.922,6.864a10.275,10.275,0,0,1-1.1,2.028l-.539-.148c.1-1.061.192-2.126.3-3.186a2.676,2.676,0,0,0-2.089-3.212c-.143-.042-.285-.081-.428-.13-4.769-1.587-6.881-.977-10.135,2.936-2.06,2.475-1.869,4.458.6,6.534,1.146.967,2.254,1.979,3.825,3.364a7.262,7.262,0,0,1-7.238-2.2c-.743-.726-1.22-1.784-2.054-2.339a11.066,11.066,0,0,0-3.3-1.272c-.77-.2-1.623-.068-2.421-.194a5.908,5.908,0,0,0-6.472,5.982,7.9,7.9,0,0,1-.24,2.164,4.777,4.777,0,0,0,3.05,5.953c4.094,1.817,7.179,1.162,10.272-2.186q1.241-1.343,2.485-2.683l.772.37a10.208,10.208,0,0,1-.671,2.936c-3.206,5.5-12.7,6.142-16.666,1.155a16.428,16.428,0,0,1-1.247-2.345c-.285-.506-.635-.977-.957-1.463a6.121,6.121,0,0,0-.792,1.755,9.307,9.307,0,0,1-9.078,8.62A9.09,9.09,0,0,1,104.494,285.338Zm7.619-22.555a23.155,23.155,0,0,0-2.395,2.32c-1.593,1.862-1.486,3.582.59,4.837a22.789,22.789,0,0,0,5.347,2.164c1.249.37,2.278,0,2.456-1.69a7.44,7.44,0,0,1,4.951-6.352,2.306,2.306,0,0,0,1.733-2.359,11.112,11.112,0,0,0-1.318.671,7.431,7.431,0,0,1-8.416.257,2.983,2.983,0,0,0-1.487-.5A2.195,2.195,0,0,0,112.112,262.783Zm-16.751-8.759c-.345,1.691-1.249,3.537-.841,5.018.776,2.8,9.162,4.947,11.576,3.293.062-.042.121-.091.179-.136a8.525,8.525,0,0,0,.862-12.154c-.967-.99-2.066-1.846-3.1-2.768l.168-.571a11.534,11.534,0,0,1,3.137.807c4.74,2.806,4.863,7.391,4.191,12.429,3.293-.843,2.183-5.661,6.414-5.82-.613,1.535-1.067,2.729-1.561,3.9-.626,1.489,0,2.228,1.434,2.6,3.1.8,5.2-1.09,4.649-4.195-.815-4.613-3.708-7.919-6.819-11.248a7.473,7.473,0,0,1-8.932.782c-2.657-1.5-5.048-3.478-7.854-5.454-2.411,1.087-5.341.948-8.387-.032a5.221,5.221,0,0,0-3.387.435c-3.056,1.372-4.928,5.824-3.923,8.89,1.042,3.182,3.735,4.474,7.771,3.983a7.732,7.732,0,0,1,.914-.051C93.009,253.735,94.194,253.948,95.361,254.024ZM131.1,251.1c-2.1.473-4.166,1.1-6.375,1.7a11.369,11.369,0,0,1,.123,8.816c.472.065,1.089-.011,1.343.258a2.423,2.423,0,0,0,3.41.366,16.433,16.433,0,0,0,3.027-2.232,5.707,5.707,0,0,0,0-8.338,2.389,2.389,0,0,0-1.347-.59A.805.805,0,0,0,131.1,251.1Zm2.4-2.57c3.144,2.074,4.581,4.964,3.738,9.275,1.768-1.242,3.592-1.836,3.9-2.877a49.768,49.768,0,0,0,1.142-7.952l-6.476-4.224ZM120.44,237.8c-.613.121-1.363.059-1.807.4-.953.727-1.177,4.88-.392,5.872a25.859,25.859,0,0,0,3.03,3.572c4.176,3.659,9.14,3.87,11.307-2.177a33.3,33.3,0,0,0,1.489-6.028c.3-1.895.088-3.87.392-5.765.708-4.386,1.445-8.782,2.472-13.1.481-2.021-.441-3.011-1.923-3.281a15.576,15.576,0,0,0-6.113-.068c-1.067.246-2.2,1.784-2.547,2.965-.194.659.974,2.015,1.837,2.622a24.3,24.3,0,0,0,4.029,1.876c.778.353,1.544.736,2.408,1.148-1.8,1.7-3.835,1.794-6.524.486-3.767-1.83-4.954-3.631-4.7-7.25a17.508,17.508,0,0,1-2.719.95,11.8,11.8,0,0,1-2.113.118c-.274,0-.537,0-.781.005.123,1.437.636,2.975.266,4.262-.4,1.392-1.616,2.551-2.329,3.592l5.052,4.658c3.838-2.04,7.608-1.1,11.16,1.227.6.392.788,1.408,1.168,2.138l-.6.509a56.463,56.463,0,0,0-5.957-2.323,6.875,6.875,0,0,0-1.787-.259C122.585,233.945,121.145,235.289,120.44,237.8Zm-15.959-4.954a25.9,25.9,0,0,0-2.41,5c-.3.828-.422,2.369.035,2.713,1.966,1.49,4.036,3.137,6.333,3.815,3.111.915,5.331-.859,6.443-3.909a15.352,15.352,0,0,1,2.362-4.484,2.24,2.24,0,0,0-.227-3.481,22.528,22.528,0,0,0-2.849-2.074,12.966,12.966,0,0,0-4.24-.867C107.627,229.564,105.913,230.6,104.481,232.848Zm-16.634-1.031a6.5,6.5,0,0,0,7.057,6.66,6.055,6.055,0,0,0,3.786-1.463c2.342-2.481,1.842-5.564.785-8.6l.516-.234,2.524,2.492,4.6-3.576c-2.145-.827-2.145-.827-2.379-3.455-.311-3.507-3.815-7.773-7.153-8.711a4.005,4.005,0,0,0-4.811,2.248,13.2,13.2,0,0,0-.814,3.91c-.065,1.729.3,3.192,2.725,3.046,1.46-.087,3.209.172,3.164,2.624a23.336,23.336,0,0,0-3.1-.23C90.313,226.531,88.118,228.27,87.847,231.817Zm34.238-29.644c-1.976,2.015-3.965,4.036-6.113,5.866-2.7,2.293-2.907,5.4-.311,7.835a4.376,4.376,0,0,0,6.215.111c1.279-1.4.9-3.423-1.041-5.282-.824-.788-1.706-1.511-2.641-2.333,2.907-1.508,4.61-.671,7.329,3.416a8.878,8.878,0,0,0,3.082-7.056c.04-2.129-1.381-3.209-3.023-4.046a2.259,2.259,0,0,0-1.028-.28C123.512,200.4,122.855,201.382,122.085,202.172Zm13.753-3.87a3.62,3.62,0,0,0,2.319,4.785c1.47.409,3.273,1.239,4.334-.727.94-1.742-.471-4.96-2.362-5.723a4.765,4.765,0,0,0-1.751-.4C137.218,196.241,136.4,196.918,135.838,198.3Zm-24.946,4.545-1.145-4.854C108.326,200.282,108.647,201.572,110.892,202.847Zm56.7-24.268c-3.144,1.862-3.913,6.411-1.525,10.086a53.531,53.531,0,0,0,5.591-5.343,3.321,3.321,0,0,0-.675-4.775,2.692,2.692,0,0,0-1.552-.389A3.828,3.828,0,0,0,167.59,178.58Zm-69.364,7.773c2.122,1.1,3.611-.266,5.282-1.174-4.468-5.279-4.468-5.279-2.547-10.93-2.881,1.158-4.5,4.344-7.916,3.5-.289.734-.814,1.391-.73,1.957a30.43,30.43,0,0,0,1.259,5.719c.436,1.225,1.366,1.068,2.3.913a3.892,3.892,0,0,1,1.251-.079,2.372,2.372,0,0,0,.461.014c.066,0,.131,0,.2,0A.976.976,0,0,1,98.226,186.353Zm10.842-18c-1.8.247-3.433,1.723-5.61,2.887,2.126,1.174,1.415,1.878.659,2.78-2.657,3.17-2.764,5.8-.075,7.975a10.848,10.848,0,0,0,4.273,1.6,3.62,3.62,0,0,0,4.464-2.021c1.051-2.024,1.46-3.86-.435-5.655a32.988,32.988,0,0,1-2.459-2.958c4.327-.238,6.605,3.033,6.174,8.708.526-.047,1.076-.04,1.622-.033a5.965,5.965,0,0,0,3.147-.486c3.617-2.255,5.677-2.515,9.4-.257.545-.486,1.1-.979,1.651-1.479.536-.484,1.065-.974,1.623-1.486-.646-.594-1.229-1.058-1.723-1.607a20.751,20.751,0,0,1-1.28-1.7,36.26,36.26,0,0,1-.044-4.6c.049-.464.983-.837,1.515-1.249a9.76,9.76,0,0,1,.62,1.613c.13.649.013,1.346.152,1.989.4,1.82,1.363,3.267,3.374,3.322,2.135.058,2.434-1.762,2.749-2.586a22.232,22.232,0,0,1-2.761-3.839c-.178-.4.931-1.375,1.583-2.267l1.427,4.529,2.213-1.359.953,3.3,8.306-4.373c-3.776-4.5-9.695-6.077-14.723-3.88a25.858,25.858,0,0,1-10.84,1.842h-.218A115.468,115.468,0,0,0,109.068,168.354Zm-16.79,7.514.416.4,3.134-3.212-.61-.671C93.58,172.8,93.009,174.424,92.279,175.868Zm4.847-12.342c-2.336,2.651-2.427,5.574-.159,8.883,4.234-2.064,6.736-5.551,9.162-9.2a11.228,11.228,0,0,0-5.1-1.712A5.038,5.038,0,0,0,97.126,163.526Zm-9.045-1.152c-.127.416-.27.824-.347,1.057l5.259,1.558c1.492-2.266,2.673-5.18,6.18-5.4a22.246,22.246,0,0,0-.674-3.371c-.523-1.47-.977-3.192-2.048-4.146-.669-.6-2.592-.331-3.627.194-.847.432-1.262,1.544-.7,3.02a28.1,28.1,0,0,1,1.256,6.97c.055.528-.691,1.148-1.067,1.725-.529-.5-1.334-.914-1.535-1.527a27.873,27.873,0,0,1-.74-3.942c-.568-3.216-2.4-4.179-5.275-2.628a21.6,21.6,0,0,0-2.985,2.384l3.536.123-2.228,3.335a10.151,10.151,0,0,0,3.481-.762,2.888,2.888,0,0,1,.819-.144C88.085,160.819,88.418,161.265,88.081,162.374Zm16.578-7.988c-.791,1.587.614,4.607,3.244,6.605,1.544-2.78,2.994-5.4,4.471-8.059a11.048,11.048,0,0,0-3.362-.562C106.94,152.371,105.3,153.1,104.659,154.387Zm7.553-11.04a3.544,3.544,0,0,0-2.309,1.567c-1.156,2.612.4,5.074,4.055,5.865a54.067,54.067,0,0,0-.3-5.684c-.1-.658-1.028-1.752-1.409-1.752A.168.168,0,0,0,112.212,143.347Zm80.2,92.035,1,.617c-4.993,18.775-16.565,33.4-29.857,46.942C175.587,268.6,186.939,253.829,192.409,235.382Zm1748,43.984a7.846,7.846,0,0,1,.522-4.773l.451-.022.561,4.466c2.1-1.687,1.438-4.071,2.01-6.256.37.267.575.347.674.5,1.148,1.764-.055,6.148-1.936,7.1a1.9,1.9,0,0,1-.854.215A1.435,1.435,0,0,1,1940.405,279.365ZM123.97,275.79c-1.43-1.177-1.44-3.565.279-5.142,1.327-1.217,2.781-3.047,4.88-.762.34.373,1.48.016,2.745-.016-1.142,1.891-1.944,3.494-3.005,4.9a3.917,3.917,0,0,1-3.068,1.663A2.85,2.85,0,0,1,123.97,275.79Zm-31.5-2.624a4.932,4.932,0,0,1,.318-3.533c.509-.967,1.769-1.537,2.47-2.1.649,1.389,1.395,2.252,1.353,3.075A5.155,5.155,0,0,1,95.4,273.73a1.906,1.906,0,0,1-1.359.6A1.637,1.637,0,0,1,92.471,273.165Zm48.4-5.405a4.172,4.172,0,0,1-1.746-3.211c-.045-1.645.847-3.135,3.235-3.42-.265.824-.486,1.36-.616,1.918-.468,1.966.071,2.42,2.063,1.949a7.438,7.438,0,0,1,1.979.075c-.259.859-.331,2.3-.817,2.462a8.988,8.988,0,0,1-2.676.492A3.443,3.443,0,0,1,140.87,267.76Zm-62.53-2.985v-2.892c.216-.242.454-.506.7-.813l1.2,3.829A11.408,11.408,0,0,1,78.34,264.775Zm48.612-7.092a27.361,27.361,0,0,1,2.06-2.913c.176-.2.583-.184.991-.17a4.913,4.913,0,0,0,.541,0c0,.48.2,1.142-.042,1.4a34.9,34.9,0,0,1-2.722,2.449ZM78.34,256.451l.323-.037a5.039,5.039,0,0,1-.323.614Zm17.068-2.468c-.135-2.561,1.15-4.554,2.738-6.348.382-.432,1.288-.406,1.95-.59a5.368,5.368,0,0,1-.321,1.885c-1.811,3-1.843,2.985-2.015,8.02C96.8,255.735,96.1,254.857,95.407,253.984Zm-.046.04.016-.082,0,.007.027.034,0,.043ZM78.34,252.469c.28.124.561.259.839.354-.293.367-.533.865-.839,1.2Zm7.117-2.3c.12-1.975.5-3.916,2.939-4.925l.213,2.288,1.849-1.032a4.788,4.788,0,0,1-1.93,5.432,2.667,2.667,0,0,1-1.237.328A1.818,1.818,0,0,1,85.457,250.166Zm1877.622-1.834c1.524-.838,2.837-1.58,4.179-2.27.185-.1.509.072.767.121-.073.285-.05.67-.23.84a4.789,4.789,0,0,1-3.4,1.467A5.832,5.832,0,0,1,1963.079,248.332ZM152.974,243.49a39.8,39.8,0,0,1,.493-4.2c.224-1.275-.279-1.856-1.45-2.313-3.64-1.431-5.08-4.672-3.568-8.264a27.213,27.213,0,0,1,2.76-4.541c1.3-1.9,2.642-3.767,4.059-5.581.35-.447,1.051-.619,1.593-.918.136.652.59,1.457.36,1.934-.922,1.923-2.014,3.769-3.118,5.6a48.746,48.746,0,0,0-2.845,4.487,3.514,3.514,0,0,0,2.057,5.058,3.618,3.618,0,0,1,2.5,4.383c-.392,2.317-.7,4.646-1.07,7.124C153.085,245.845,152.893,244.706,152.974,243.49Zm5.541,2.212c.464-2.887.919-5.778,1.392-8.665a10.028,10.028,0,0,1,3.578-5.976c1.106-.986,1.755-2.486,2.887-3.734a11.034,11.034,0,0,1-1.281,3.075,18.161,18.161,0,0,0-4.247,11.232c-.085,1.508-1.1,2.965-1.69,4.444Zm1825.565-6.556.218-.355a10.251,10.251,0,0,1,1.591,1.047,2.308,2.308,0,0,0,3.029.3l-.628-1.975c1.186.418,1.786,1.132,1.751,1.965-.046,1.03-.746,1.475-1.636,1.695a4.089,4.089,0,0,1-.981.125A3.523,3.523,0,0,1,1984.081,239.146Zm1.86-2.018c-.278-.069-.485-.426-.724-.651.209-.159.441-.481.624-.455a25.732,25.732,0,0,1,3.785.7c.455.136.752.808,1.12,1.235l-.328.168C1988.924,237.8,1987.423,237.5,1985.941,237.128ZM78.34,233.987c.1-.141.216-.279.333-.416,1.2-1.4,2.683-2.424,4.682-1.732,1.086.376,1.174,1.084.279,1.791-1.725,1.359-3.484,2.675-5.294,4.061Zm1886.929,1.806c-.081-.236.115-.567.185-.856.283.1.691.106.826.3.457.668.816,1.4,1.348,2.348A2.47,2.47,0,0,1,1965.269,235.794Zm-1872.6.853a2.218,2.218,0,0,1-1.735-3.079,19.667,19.667,0,0,1,2.891-4.353,1.62,1.62,0,0,1,1.567-.143c.318.191.282.97.37,1.34a8.268,8.268,0,0,0-1.227,1.921,9.441,9.441,0,0,0-.107,2.352c0,.539.279,1.37.04,1.554a2.478,2.478,0,0,1-1.409.454A1.585,1.585,0,0,1,92.665,236.647Zm1879.858-3.68,1.047-1.977c.241.185.713.415.688.547a22.093,22.093,0,0,1-.638,2.194ZM1951.7,224.54c1.841,3.668,5.533,5.31,8.6,7.938C1956.15,231.637,1951.425,227.327,1951.7,224.54Zm20.174,1.172a7.463,7.463,0,0,1-.4,6.5Zm-6.816,1.079q1.149,2.438,2.293,4.872l-.207.212C1965.93,230.426,1964.617,229.024,1965.06,226.791Zm-9.572-21.336c-.184.563-.413,1.116-.542,1.692a34.752,34.752,0,0,0-1.184,5.7c-.344,6.392,2.139,11.733,6.521,16.275.548.567,1.071,1.157,1.6,1.735C1954.243,226.279,1949.871,214.753,1955.489,205.455Zm20,21.856c-.014-.158.256-.443.437-.489a.753.753,0,0,1,.614.238,3.824,3.824,0,0,1-.17,3.718l-.453.054C1975.762,229.658,1975.592,228.488,1975.484,227.31ZM78.34,225.346l.927-.167.518,1.85c1.843.055,3.861-.176,5,2.424-2.32-.062-4.643-.493-6.445.646Zm1904.146-7.362c1.134,1.834-.239,7.735-2.29,9.851C1980.963,224.534,1981.722,221.271,1982.486,217.984Zm-4.965,7.085c.026-.563.044-1.127.083-1.688s.124-1.134.14-1.7c.22-7.205-1.709-13.663-6.676-19.05a15,15,0,0,0-7.092-4.559l.106-.473a4.911,4.911,0,0,1,1.41.179,15.8,15.8,0,0,1,3.017,1.577c6.763,5,9.594,12.005,9.969,20.148a36.063,36.063,0,0,1-.6,5.619Zm-5.345-1.391a11.4,11.4,0,0,1,.595-1.622c.078-.144.7-.179.715-.142a13.069,13.069,0,0,1,.355,1.444.379.379,0,0,1-.011.238c-.192.356-.4.706-.6,1.058Zm-7.906-1.976c.024-.256.411-.567.695-.666.129-.045.567.338.606.571a20.8,20.8,0,0,1,.148,2.233A1.757,1.757,0,0,1,1964.27,221.7ZM78.34,221.488a3.917,3.917,0,0,1,1.014.819l-1.014,1.217Zm1889.037.412.742-1.158a5.944,5.944,0,0,1,1.026,1.3c.112.262-.216.709-.347,1.074Zm-21.383-.63c-.049-.475.388-1,.613-1.507l1.188,1.154-.824,1.524C1946.624,222.053,1946.038,221.689,1945.994,221.27Zm11.047-13.327,2.795,12.829-.3.06C1957.842,216.706,1956.371,212.536,1957.041,207.942Zm-7.448,11.468.19-.205a2.449,2.449,0,0,1-.1-.835,5.041,5.041,0,0,1,.471-1,7.15,7.15,0,0,1,1,.662.876.876,0,0,1,.253.661c-.09.7-.256,1.4-.4,2.093Zm33.887-7.814a58.166,58.166,0,0,0-2.012-6.349c2.535.874,4.126,9.846,2.683,13.1A60.791,60.791,0,0,0,1983.479,211.6Zm-22.75-4.3.377-.113q1.673,5.434,3.345,10.869l-.343.1A38.3,38.3,0,0,1,1960.729,207.3Zm6.67-3.248c2.615,1.631,6.371,11.879,5.125,13.957C1971.725,212.942,1969.324,208.586,1967.4,204.051Zm-1.9,12.5c.02-.417.455-.814.706-1.22.254.388.654.753.718,1.17a3.345,3.345,0,0,1-.36,1.288l-.488.057C1965.863,217.411,1965.475,216.97,1965.5,216.548ZM1952.5,204.071a17.548,17.548,0,0,0-4.208,8.878c1.407.117,1.068,1.081,1.05,1.977-.028,1.291-1.354.68-1.793,1.327C1946.875,212.126,1949.9,204.646,1952.5,204.071Zm10.281-2.891,3.87,9.447-.37.1C1964.186,207.357,1962.094,202.215,1962.783,201.18Zm15.683,4.131a7.37,7.37,0,0,1,1.909,5.386Zm-9.153-1.9a.933.933,0,0,1,.242-.82c.113-.115.548-.04.751.088a3.479,3.479,0,0,1,.9,3.84C1970.458,205.316,1969.844,204.389,1969.313,203.414Zm-11.687-.8a.88.88,0,0,1,.556-.668,1.046,1.046,0,0,1,.863.43,3.759,3.759,0,0,1-.076,3.511A3.974,3.974,0,0,1,1957.626,202.617Zm16.762.212c.034-.17.217-.452.307-.443.252.027.627.115.708.292.391.841.7,1.723,1.035,2.589A2.44,2.44,0,0,1,1974.389,202.829Zm-20.9.428c.115-.455.585-.821.9-1.225a4,4,0,0,1,.452,1.292c0,.388-.328.772-.51,1.161l-.441.022C1953.743,204.088,1953.4,203.617,1953.491,203.257Zm23-1.285a.857.857,0,0,1-.033-.754c.058-.139.408-.241.6-.213.9.128,1.708,1.479,1.467,2.737C1977.775,203.1,1977.1,202.571,1976.488,201.972Zm-7.555-3.457c2.008-.936,5.76.328,5.974,1.818Zm-15.74.54c1.645-.769,2.09-1.619,1.8-3.344a5.966,5.966,0,0,1-.326-1.905,7.377,7.377,0,0,1,.994-1.926,7.029,7.029,0,0,1,1.351.983c.445.518.7,1.188,1.1,1.751.38.536.833,1.024,1.254,1.533l.253-.13q-.034-3.966-.068-7.93l.422-.009a22.353,22.353,0,0,1,.989,8.474,1.141,1.141,0,0,1-2.075.647,16.616,16.616,0,0,1-1.955-3.032c-.349-.592-.6-1.239-.942-1.951-.94,1.211-.5,2.254-.208,3.3.49,1.742.186,2.911-.987,3.709a1.621,1.621,0,0,1-.837.361C1953.7,199.591,1953.447,199.453,1953.194,199.055ZM91.971,195.019a2.167,2.167,0,0,1,2.446-2.057l.366,6.206C93.006,198.371,91.631,197.235,91.971,195.019Zm1855.947-9.113a9.81,9.81,0,0,1-.375-1.661c2.165,1.255,5.944,10.592,5.371,12.428C1951.26,193.118,1949.575,189.519,1947.918,185.906ZM184.266,176.465c4.737,2.3,6.209,12.8,3.247,20.209C186.666,189.682,188.577,182.9,184.266,176.465Zm1766.753,9.357a1.008,1.008,0,0,1,.956-.194,2.672,2.672,0,0,1,.1,3.067A2.472,2.472,0,0,1,1951.019,185.822Zm4.444-.549c-.039-.207.285-.629.518-.7a.869.869,0,0,1,.783.335,3.368,3.368,0,0,1,.013,3.18l-.571.1C1955.949,187.219,1955.651,186.257,1955.463,185.273Zm-4.391-3.734a.922.922,0,0,1,.614-.62.84.84,0,0,1,.644.523,18.326,18.326,0,0,1,.188,2.226C1951.292,183.084,1950.943,182.413,1951.072,181.539Zm-1829.3-5.25a6.661,6.661,0,0,1-4.111-5.693,8.8,8.8,0,0,1,.63-2.541l.59.065a3.466,3.466,0,0,1,.334.7c.821,3.714,2.459,5.142,6.285,5.453,1.637.131,3.278.248,4.918.376a4.934,4.934,0,0,1-4.619,2.678A9.14,9.14,0,0,1,121.767,176.289Zm-39.361-.042a2.486,2.486,0,0,1-.6-2.414,14.713,14.713,0,0,1,2.845-2.738l.649.626-1,1.914.451-.045c.081.75.471,1.959.182,2.155a3.943,3.943,0,0,1-1.934.632A1.184,1.184,0,0,1,82.407,176.247Zm48.006-1.593.046-.091.045.1Zm.046-.091.044.059c0,.013,0,.025,0,.038ZM82.364,135.644c-.859-4.049,1.914-9,5.931-9.668,2.128-.354,4.464.415,6.68.817.366.065.6.857.9,1.31a4.162,4.162,0,0,1-1.511.565c-1.029-.052-2.041-.392-3.069-.493a5.467,5.467,0,0,0-6.252,4.945c-.3,2.42.558,3.864,2.937,4.863,1.521.639,3.062,1.227,4.594,1.836l.022.533a9.854,9.854,0,0,1-1.892.681,8,8,0,0,1-1.128.081A7.246,7.246,0,0,1,82.364,135.644Zm23.044,2.163c-.73.011-1.461.021-1.621-.274a4.1,4.1,0,0,1-.309-3.144c.7-1.645,2.135-1.885,4.082-.915l-1.132,1.13-.087,3.218C106.064,137.8,105.737,137.8,105.408,137.807ZM92,130.386a1.9,1.9,0,0,1,1.415.142,1.165,1.165,0,0,1,.188,1.13c-1.213,1.816-2.508,3.578-3.932,5.566C88.655,134.609,89.947,131.116,92,130.386ZM78.34,122.228c.779-.144,1.558-.287,2.335-.44a6.953,6.953,0,0,1-2.335,1.366Z" transform="translate(-77.84 -71.69)" fill="#fff" stroke="rgba(0,0,0,0)" stroke-width="1" opacity="0.09"/></svg>